<svg xmlns="http://www.w3.org/2000/svg" xmlns:xlink="http://www.w3.org/1999/xlink" width="2500" zoomAndPan="magnify" viewBox="0 0 1874.88 1874.999927" height="2500" preserveAspectRatio="xMidYMid meet" version="1.0"><defs><clipPath id="id1"><path d="M 0 0.0585938 L 1874.761719 0.0585938 L 1874.761719 1874.9375 L 0 1874.9375 Z M 0 0.0585938 " clip-rule="nonzero"/></clipPath><clipPath id="id2"><path d="M 0 0.0585938 L 1874.761719 0.0585938 L 1874.761719 1874.9375 L 0 1874.9375 Z M 0 0.0585938 " clip-rule="nonzero"/></clipPath><clipPath id="id3"><path d="M 937.441406 0.0585938 C 419.699219 0.0585938 0 419.757812 0 937.5 C 0 1455.238281 419.699219 1874.941406 937.441406 1874.941406 C 1455.179688 1874.941406 1874.878906 1455.238281 1874.878906 937.5 C 1874.878906 419.757812 1455.179688 0.0585938 937.441406 0.0585938 " clip-rule="nonzero"/></clipPath><clipPath id="id4"><path d="M 87.28125 265.101562 L 1785.921875 265.101562 L 1785.921875 1611 L 87.28125 1611 Z M 87.28125 265.101562 " clip-rule="nonzero"/></clipPath></defs><g clip-path="url(#id1)"><path fill="#ffffff" d="M 0 0.0585938 L 1874.878906 0.0585938 L 1874.878906 1882.4375 L 0 1882.4375 Z M 0 0.0585938 " fill-opacity="1" fill-rule="nonzero"/><path fill="#ffffff" d="M 0 0.0585938 L 1874.878906 0.0585938 L 1874.878906 1874.941406 L 0 1874.941406 Z M 0 0.0585938 " fill-opacity="1" fill-rule="nonzero"/><path fill="#ffffff" d="M 0 0.0585938 L 1874.878906 0.0585938 L 1874.878906 1874.941406 L 0 1874.941406 Z M 0 0.0585938 " fill-opacity="1" fill-rule="nonzero"/><path fill="#ffffff" d="M 0 0.0585938 L 1874.878906 0.0585938 L 1874.878906 1874.941406 L 0 1874.941406 Z M 0 0.0585938 " fill-opacity="1" fill-rule="nonzero"/><rect x="-187.488" width="2249.856" fill="#ffffff" y="-187.499993" height="2249.999912" fill-opacity="1"/><rect x="-187.488" width="2249.856" fill="#ffffff" y="-187.499993" height="2249.999912" fill-opacity="1"/><rect x="-187.488" width="2249.856" fill="#ffffff" y="-187.499993" height="2249.999912" fill-opacity="1"/><rect x="-187.488" width="2249.856" fill="#ffffff" y="-187.499993" height="2249.999912" fill-opacity="1"/><path fill="#ffffff" d="M 937.441406 0.0585938 C 419.699219 0.0585938 0 419.757812 0 937.5 C 0 1455.238281 419.699219 1874.941406 937.441406 1874.941406 C 1455.179688 1874.941406 1874.878906 1455.238281 1874.878906 937.5 C 1874.878906 419.757812 1455.179688 0.0585938 937.441406 0.0585938 " fill-opacity="1" fill-rule="nonzero"/></g><g clip-path="url(#id2)"><g clip-path="url(#id3)"><path stroke-linecap="butt" transform="matrix(3.74976, 0, 0, 3.74976, 0, 0.0599635)" fill="none" stroke-linejoin="miter" d="M 250.000401 -0.00036529 C 111.926967 -0.00036529 0 111.926602 0 250.000036 C 0 388.072429 111.926967 500.000438 250.000401 500.000438 C 388.072794 500.000438 499.999761 388.072429 499.999761 250.000036 C 499.999761 111.926602 388.072794 -0.00036529 250.000401 -0.00036529 " stroke="#000000" stroke-width="18" stroke-opacity="1" stroke-miterlimit="4"/></g></g><g clip-path="url(#id4)"><path fill="#0f0f0f" d="M 384.195312 752.6875 C 255.179688 804.851562 15.957031 901.566406 107.746094 1061.515625 C 178.992188 1185.707031 309.921875 1131.179688 433.3125 1065.089844 C 468.308594 1103.289062 519.105469 1127.332031 575.6875 1127.332031 C 638.867188 1127.332031 693.882812 1097.371094 727.921875 1051.203125 C 738.898438 1151.605469 672.886719 1250.898438 616.113281 1336.242188 C 551.390625 1433.582031 498.699219 1512.816406 585.878906 1555.039062 C 756.359375 1637.609375 848.460938 1635.660156 1022.863281 1499.984375 C 1108.71875 1433.191406 1041.671875 1382.140625 971.558594 1328.746094 C 899.238281 1273.667969 823.636719 1216.09375 909.21875 1136.238281 C 937.109375 1110.203125 964.410156 1099.1875 991.011719 1097.996094 C 1017.960938 1114.871094 1049.523438 1125.300781 1083.464844 1127.058594 C 1103.621094 1139.148438 1123.210938 1153.597656 1142.191406 1167.601562 C 1212.675781 1219.589844 1274.566406 1265.253906 1324.640625 1159.828125 C 1401.921875 997.164062 1335.109375 995.523438 1260.953125 1027.6875 C 1274.742188 1001.636719 1282.496094 971.929688 1282.496094 940.410156 L 1334.308594 940.410156 C 1334.347656 940.410156 1334.367188 940.410156 1334.40625 940.410156 C 1353.664062 945.703125 1373.074219 951.171875 1392.429688 956.640625 C 1553.007812 1001.910156 1709.96875 1046.164062 1738.109375 982.867188 C 1794.945312 855.0625 1834.140625 446.105469 1655.8125 538.503906 C 1607.632812 563.480469 1553.300781 599.085938 1497.363281 635.722656 C 1395.671875 702.320312 1288.746094 772.375 1203.964844 788.289062 C 1173.148438 766.378906 1135.21875 753.488281 1093.777344 753.488281 C 1090.535156 753.488281 1087.3125 753.566406 1084.128906 753.722656 C 1063.839844 737.179688 1043.351562 722.921875 1024.210938 709.605469 C 938.066406 649.628906 879.554688 608.886719 991.519531 465.753906 C 1134.554688 282.914062 922.929688 164.933594 868.050781 385.152344 C 813.191406 605.351562 746.574219 611.269531 619.199219 538.503906 C 527.210938 485.984375 500.632812 584.164062 481.160156 656.113281 C 473.660156 683.804688 467.214844 707.59375 458.503906 717.4375 C 451.300781 725.558594 422.648438 737.140625 384.195312 752.6875 Z M 1084.128906 753.722656 C 996.167969 758 923.867188 820.378906 906.542969 902.40625 C 883.417969 882.777344 859.417969 872.621094 834.808594 872.445312 L 834.144531 872.445312 C 809.1875 872.445312 784.578125 882.699219 760.636719 902.777344 C 743.292969 817.566406 668.121094 753.488281 575.6875 753.488281 C 475.90625 753.488281 394.078125 828.25 385.347656 923.574219 C 385.210938 923.574219 385.074219 923.535156 384.957031 923.496094 C 384.800781 923.457031 384.644531 923.417969 384.488281 923.417969 L 332.675781 923.417969 C 323.125 923.417969 315.410156 931.035156 315.410156 940.410156 C 315.410156 949.785156 323.125 957.402344 332.675781 957.402344 L 384.488281 957.402344 C 384.644531 957.402344 384.800781 957.363281 384.957031 957.304688 C 385.074219 957.265625 385.210938 957.246094 385.347656 957.226562 C 389.117188 998.511719 406.613281 1035.929688 433.3125 1065.089844 C 448.234375 1057.101562 463.015625 1048.957031 477.585938 1040.929688 C 594.492188 976.519531 696.695312 920.214844 723.058594 1024.15625 C 725.34375 1033.175781 726.945312 1042.179688 727.921875 1051.203125 C 749.523438 1021.890625 762.664062 986.070312 764.070312 947.246094 C 788.09375 920.253906 811.648438 906.425781 834.144531 906.425781 L 834.554688 906.425781 C 856.820312 906.582031 879.808594 920.371094 902.910156 947.128906 C 905.214844 1010.523438 939.746094 1065.910156 991.011719 1097.996094 C 1022.902344 1096.570312 1053.800781 1109.246094 1083.464844 1127.058594 C 1086.882812 1127.234375 1090.320312 1127.332031 1093.777344 1127.332031 C 1167.132812 1127.332031 1229.628906 1086.945312 1260.953125 1027.6875 C 1239.21875 1037.140625 1216.835938 1049.484375 1197.265625 1061.515625 C 1111.042969 1114.597656 946.441406 1055.617188 1022.863281 927.8125 C 1056.886719 870.941406 1190.996094 900.902344 1334.40625 940.410156 C 1343.917969 940.351562 1351.574219 932.753906 1351.574219 923.417969 C 1351.574219 914.023438 1343.859375 906.425781 1334.308594 906.425781 L 1282.496094 906.425781 C 1281.792969 906.425781 1281.128906 906.582031 1280.484375 906.757812 C 1280.113281 906.875 1279.742188 906.953125 1279.371094 907.03125 C 1270.601562 858.246094 1243.007812 816.042969 1203.964844 788.289062 C 1162.796875 796.003906 1126.863281 790.984375 1099.285156 766.59375 C 1094.265625 762.140625 1089.207031 757.863281 1084.128906 753.722656 Z M 1084.128906 753.722656 " fill-opacity="1" fill-rule="evenodd"/></g></svg>