<svg xmlns="http://www.w3.org/2000/svg" xmlns:xlink="http://www.w3.org/1999/xlink" width="500" zoomAndPan="magnify" viewBox="0 0 375 374.999991" height="500" preserveAspectRatio="xMidYMid meet" version="1.0"><defs><clipPath id="id1"><path d="M 187.5 0 C 83.945312 0 0 83.945312 0 187.5 C 0 291.054688 83.945312 375 187.5 375 C 291.054688 375 375 291.054688 375 187.5 C 375 83.945312 291.054688 0 187.5 0 " clip-rule="nonzero"/></clipPath><clipPath id="id2"><path d="M 17.457031 53.011719 L 357.207031 53.011719 L 357.207031 322.261719 L 17.457031 322.261719 Z M 17.457031 53.011719 " clip-rule="nonzero"/></clipPath></defs><rect x="-37.5" width="450" fill="#ffffff" y="-37.499999" height="449.999989" fill-opacity="1"/><rect x="-37.5" width="450" fill="#ffffff" y="-37.499999" height="449.999989" fill-opacity="1"/><rect x="-37.5" width="450" fill="#ffffff" y="-37.499999" height="449.999989" fill-opacity="1"/><rect x="-37.5" width="450" fill="#ffffff" y="-37.499999" height="449.999989" fill-opacity="1"/><path fill="#ffffff" d="M 187.5 0 C 83.945312 0 0 83.945312 0 187.5 C 0 291.054688 83.945312 375 187.5 375 C 291.054688 375 375 291.054688 375 187.5 C 375 83.945312 291.054688 0 187.5 0 " fill-opacity="1" fill-rule="nonzero"/><g clip-path="url(#id1)"><path stroke-linecap="butt" transform="matrix(0.75, 0, 0, 0.75, 0.0000045, 0.000000000000021316)" fill="none" stroke-linejoin="miter" d="M 249.999994 -0.000000000000028422 C 111.927078 -0.000000000000028422 -0.000006 111.927084 -0.000006 250 C -0.000006 388.072917 111.927078 500.000001 249.999994 500.000001 C 388.072911 500.000001 499.999995 388.072917 499.999995 250 C 499.999995 111.927084 388.072911 -0.000000000000028422 249.999994 -0.000000000000028422 " stroke="#000000" stroke-width="18" stroke-opacity="1" stroke-miterlimit="4"/></g><g clip-path="url(#id2)"><path fill="#0f0f0f" d="M 76.84375 150.535156 C 51.039062 160.96875 3.191406 180.3125 21.550781 212.304688 C 35.800781 237.144531 61.988281 226.238281 86.667969 213.019531 C 93.667969 220.660156 103.828125 225.46875 115.144531 225.46875 C 127.78125 225.46875 138.785156 219.476562 145.59375 210.242188 C 147.789062 230.324219 134.585938 250.183594 123.230469 267.253906 C 110.285156 286.722656 99.746094 302.570312 117.183594 311.015625 C 151.28125 327.53125 169.703125 327.140625 204.585938 300.003906 C 221.757812 286.644531 208.347656 276.433594 194.324219 265.753906 C 179.859375 254.738281 164.738281 243.222656 181.855469 227.25 C 187.433594 222.042969 192.894531 219.839844 198.214844 219.601562 C 203.605469 222.976562 209.917969 225.0625 216.707031 225.414062 C 220.738281 227.832031 224.65625 230.722656 228.453125 233.523438 C 242.550781 243.921875 254.929688 253.054688 264.945312 231.96875 C 280.402344 199.433594 267.039062 199.105469 252.207031 205.539062 C 254.964844 200.328125 256.515625 194.386719 256.515625 188.082031 L 266.878906 188.082031 C 266.886719 188.082031 266.890625 188.082031 266.898438 188.082031 C 270.75 189.140625 274.632812 190.234375 278.503906 191.328125 C 310.621094 200.382812 342.015625 209.234375 347.644531 196.574219 C 359.011719 171.011719 366.851562 89.214844 331.183594 107.695312 C 321.546875 112.691406 310.679688 119.8125 299.492188 127.140625 C 279.152344 140.460938 257.765625 154.472656 240.808594 157.65625 C 234.644531 153.273438 227.058594 150.695312 218.769531 150.695312 C 218.121094 150.695312 217.476562 150.710938 216.839844 150.742188 C 212.78125 147.433594 208.683594 144.582031 204.855469 141.917969 C 187.625 129.921875 175.921875 121.773438 198.316406 93.144531 C 226.925781 56.574219 184.597656 32.976562 173.621094 77.023438 C 162.648438 121.066406 149.324219 122.25 123.847656 107.695312 C 105.449219 97.191406 100.132812 116.828125 96.238281 131.21875 C 94.738281 136.757812 93.449219 141.515625 91.707031 143.484375 C 90.265625 145.109375 84.535156 147.425781 76.84375 150.535156 Z M 216.839844 150.742188 C 199.246094 151.597656 184.785156 164.074219 181.320312 180.480469 C 176.695312 176.554688 171.894531 174.523438 166.972656 174.488281 L 166.839844 174.488281 C 161.847656 174.488281 156.925781 176.539062 152.136719 180.554688 C 148.667969 163.511719 133.632812 150.695312 115.144531 150.695312 C 95.1875 150.695312 78.820312 165.648438 77.074219 184.714844 C 77.046875 184.714844 77.019531 184.707031 76.996094 184.699219 C 76.964844 184.691406 76.933594 184.683594 76.902344 184.683594 L 66.539062 184.683594 C 64.628906 184.683594 63.085938 186.207031 63.085938 188.082031 C 63.085938 189.957031 64.628906 191.480469 66.539062 191.480469 L 76.902344 191.480469 C 76.933594 191.480469 76.964844 191.472656 76.996094 191.460938 C 77.019531 191.453125 77.046875 191.449219 77.074219 191.445312 C 77.828125 199.703125 81.328125 207.1875 86.667969 213.019531 C 89.652344 211.421875 92.609375 209.792969 95.523438 208.1875 C 118.90625 195.304688 139.347656 184.042969 144.621094 204.832031 C 145.078125 206.636719 145.398438 208.4375 145.59375 210.242188 C 149.914062 204.378906 152.542969 197.214844 152.824219 189.449219 C 157.628906 184.050781 162.339844 181.285156 166.839844 181.285156 L 166.921875 181.285156 C 171.375 181.316406 175.972656 184.074219 180.59375 189.425781 C 181.054688 202.105469 187.960938 213.183594 198.214844 219.601562 C 204.59375 219.316406 210.773438 221.851562 216.707031 225.414062 C 217.390625 225.449219 218.078125 225.46875 218.769531 225.46875 C 233.441406 225.46875 245.941406 217.390625 252.207031 205.539062 C 247.859375 207.429688 243.382812 209.898438 239.46875 212.304688 C 222.222656 222.921875 189.300781 211.125 204.585938 185.5625 C 211.390625 174.1875 238.214844 180.179688 266.898438 188.082031 C 268.800781 188.070312 270.332031 186.550781 270.332031 184.683594 C 270.332031 182.804688 268.789062 181.285156 266.878906 181.285156 L 256.515625 181.285156 C 256.375 181.285156 256.242188 181.316406 256.113281 181.351562 C 256.039062 181.375 255.964844 181.390625 255.890625 181.40625 C 254.136719 171.648438 248.617188 163.207031 240.808594 157.65625 C 232.574219 159.199219 225.386719 158.195312 219.871094 153.316406 C 218.867188 152.425781 217.855469 151.570312 216.839844 150.742188 Z M 216.839844 150.742188 " fill-opacity="1" fill-rule="evenodd"/></g></svg>