<svg xmlns="http://www.w3.org/2000/svg" xmlns:xlink="http://www.w3.org/1999/xlink" width="2500" zoomAndPan="magnify" viewBox="0 0 1874.88 1874.999927" height="2500" preserveAspectRatio="xMidYMid meet" version="1.0"><defs><clipPath id="id1"><path d="M 0 0.0585938 L 1874.761719 0.0585938 L 1874.761719 1874.9375 L 0 1874.9375 Z M 0 0.0585938 " clip-rule="nonzero"/></clipPath></defs><g clip-path="url(#id1)"><path fill="#ffffff" d="M 0 0.0585938 L 1874.878906 0.0585938 L 1874.878906 1882.4375 L 0 1882.4375 Z M 0 0.0585938 " fill-opacity="1" fill-rule="nonzero"/><path fill="#1b1e36" d="M 0 0.0585938 L 1874.878906 0.0585938 L 1874.878906 1874.941406 L 0 1874.941406 Z M 0 0.0585938 " fill-opacity="1" fill-rule="nonzero"/><path fill="#ffffff" d="M 0 0.0585938 L 1874.878906 0.0585938 L 1874.878906 1874.941406 L 0 1874.941406 Z M 0 0.0585938 " fill-opacity="1" fill-rule="nonzero"/><path fill="#1b1e36" d="M 0 0.0585938 L 1874.878906 0.0585938 L 1874.878906 1874.941406 L 0 1874.941406 Z M 0 0.0585938 " fill-opacity="1" fill-rule="nonzero"/><path fill="#2e3148" d="M 1874.878906 937.5 C 1874.878906 952.84375 1874.503906 968.175781 1873.75 983.496094 C 1873 998.820312 1871.871094 1014.117188 1870.367188 1029.386719 C 1868.863281 1044.652344 1866.984375 1059.875 1864.734375 1075.050781 C 1862.480469 1090.226562 1859.859375 1105.339844 1856.867188 1120.386719 C 1853.875 1135.433594 1850.511719 1150.398438 1846.785156 1165.277344 C 1843.058594 1180.160156 1838.96875 1194.941406 1834.515625 1209.625 C 1830.058594 1224.304688 1825.25 1238.867188 1820.082031 1253.3125 C 1814.914062 1267.757812 1809.390625 1282.070312 1803.519531 1296.242188 C 1797.648438 1310.417969 1791.433594 1324.4375 1784.875 1338.308594 C 1778.316406 1352.175781 1771.421875 1365.875 1764.1875 1379.40625 C 1756.957031 1392.9375 1749.394531 1406.28125 1741.507812 1419.441406 C 1733.621094 1432.601562 1725.417969 1445.558594 1716.894531 1458.3125 C 1708.367188 1471.070312 1699.539062 1483.609375 1690.398438 1495.933594 C 1681.257812 1508.253906 1671.824219 1520.347656 1662.089844 1532.207031 C 1652.359375 1544.066406 1642.339844 1555.679688 1632.039062 1567.046875 C 1621.734375 1578.414062 1611.160156 1589.523438 1600.308594 1600.371094 C 1589.460938 1611.21875 1578.355469 1621.792969 1566.984375 1632.097656 C 1555.617188 1642.402344 1544.003906 1652.417969 1532.144531 1662.152344 C 1520.285156 1671.882812 1508.195312 1681.320312 1495.871094 1690.457031 C 1483.550781 1699.597656 1471.011719 1708.429688 1458.253906 1716.953125 C 1445.496094 1725.476562 1432.539062 1733.679688 1419.378906 1741.570312 C 1406.222656 1749.457031 1392.875 1757.015625 1379.347656 1764.25 C 1365.816406 1771.480469 1352.117188 1778.375 1338.246094 1784.9375 C 1324.378906 1791.496094 1310.355469 1797.710938 1296.183594 1803.582031 C 1282.007812 1809.453125 1267.699219 1814.972656 1253.253906 1820.140625 C 1238.808594 1825.308594 1224.246094 1830.121094 1209.5625 1834.574219 C 1194.882812 1839.027344 1180.101562 1843.117188 1165.21875 1846.847656 C 1150.335938 1850.574219 1135.371094 1853.933594 1120.324219 1856.925781 C 1105.277344 1859.921875 1090.167969 1862.542969 1074.992188 1864.792969 C 1059.816406 1867.042969 1044.59375 1868.921875 1029.324219 1870.425781 C 1014.058594 1871.929688 998.761719 1873.058594 983.4375 1873.808594 C 968.113281 1874.5625 952.78125 1874.941406 937.441406 1874.941406 C 922.097656 1874.941406 906.765625 1874.5625 891.441406 1873.808594 C 876.117188 1873.058594 860.824219 1871.929688 845.554688 1870.425781 C 830.285156 1868.921875 815.066406 1867.042969 799.890625 1864.792969 C 784.714844 1862.542969 769.601562 1859.921875 754.554688 1856.925781 C 739.507812 1853.933594 724.542969 1850.574219 709.660156 1846.847656 C 694.777344 1843.117188 679.996094 1839.027344 665.316406 1834.574219 C 650.632812 1830.121094 636.070312 1825.308594 621.625 1820.140625 C 607.179688 1814.972656 592.871094 1809.453125 578.695312 1803.582031 C 564.523438 1797.710938 550.5 1791.496094 536.632812 1784.9375 C 522.765625 1778.375 509.0625 1771.480469 495.535156 1764.25 C 482.003906 1757.015625 468.660156 1749.457031 455.5 1741.570312 C 442.339844 1733.679688 429.382812 1725.476562 416.625 1716.953125 C 403.871094 1708.429688 391.332031 1699.597656 379.007812 1690.457031 C 366.683594 1681.320312 354.59375 1671.882812 342.734375 1662.152344 C 330.875 1652.417969 319.261719 1642.402344 307.894531 1632.097656 C 296.527344 1621.792969 285.417969 1611.21875 274.570312 1600.371094 C 263.722656 1589.523438 253.144531 1578.414062 242.84375 1567.046875 C 232.539062 1555.679688 222.523438 1544.066406 212.789062 1532.207031 C 203.054688 1520.347656 193.621094 1508.253906 184.480469 1495.933594 C 175.34375 1483.609375 166.511719 1471.070312 157.988281 1458.3125 C 149.464844 1445.558594 141.257812 1432.597656 133.371094 1419.441406 C 125.484375 1406.28125 117.925781 1392.9375 110.691406 1379.40625 C 103.460938 1365.875 96.5625 1352.175781 90.003906 1338.308594 C 83.445312 1324.4375 77.230469 1310.417969 71.359375 1296.242188 C 65.488281 1282.070312 59.96875 1267.757812 54.800781 1253.3125 C 49.628906 1238.867188 44.820312 1224.304688 40.367188 1209.625 C 35.914062 1194.941406 31.820312 1180.160156 28.09375 1165.277344 C 24.367188 1150.398438 21.003906 1135.433594 18.011719 1120.386719 C 15.019531 1105.339844 12.398438 1090.226562 10.144531 1075.050781 C 7.894531 1059.875 6.019531 1044.652344 4.515625 1029.386719 C 3.011719 1014.117188 1.882812 998.820312 1.128906 983.496094 C 0.375 968.175781 0 952.84375 0 937.5 C 0 922.15625 0.375 906.824219 1.128906 891.5 C 1.882812 876.179688 3.011719 860.882812 4.515625 845.613281 C 6.019531 830.347656 7.894531 815.125 10.144531 799.949219 C 12.398438 784.773438 15.019531 769.660156 18.011719 754.613281 C 21.003906 739.566406 24.367188 724.601562 28.09375 709.71875 C 31.820312 694.839844 35.914062 680.058594 40.367188 665.375 C 44.820312 650.695312 49.628906 636.132812 54.800781 621.6875 C 59.96875 607.242188 65.488281 592.929688 71.359375 578.757812 C 77.230469 564.582031 83.445312 550.5625 90.003906 536.691406 C 96.5625 522.824219 103.460938 509.125 110.691406 495.59375 C 117.925781 482.0625 125.484375 468.71875 133.371094 455.558594 C 141.257812 442.398438 149.464844 429.441406 157.988281 416.6875 C 166.511719 403.929688 175.34375 391.390625 184.480469 379.066406 C 193.621094 366.746094 203.054688 354.652344 212.789062 342.792969 C 222.523438 330.933594 232.539062 319.320312 242.84375 307.953125 C 253.144531 296.585938 263.722656 285.476562 274.570312 274.628906 C 285.417969 263.78125 296.527344 253.207031 307.894531 242.902344 C 319.261719 232.601562 330.875 222.582031 342.734375 212.847656 C 354.59375 203.117188 366.683594 193.679688 379.007812 184.542969 C 391.332031 175.402344 403.871094 166.570312 416.625 158.046875 C 429.382812 149.523438 442.339844 141.316406 455.5 133.429688 C 468.660156 125.542969 482.003906 117.984375 495.535156 110.75 C 509.0625 103.519531 522.765625 96.625 536.632812 90.0625 C 550.5 83.503906 564.523438 77.289062 578.695312 71.417969 C 592.871094 65.546875 607.179688 60.027344 621.625 54.859375 C 636.070312 49.691406 650.632812 44.878906 665.316406 40.425781 C 679.996094 35.972656 694.777344 31.882812 709.660156 28.152344 C 724.542969 24.425781 739.507812 21.066406 754.554688 18.074219 C 769.601562 15.078125 784.714844 12.457031 799.890625 10.207031 C 815.066406 7.957031 830.285156 6.078125 845.554688 4.574219 C 860.824219 3.070312 876.117188 1.941406 891.441406 1.1875 C 906.765625 0.4375 922.097656 0.0585938 937.441406 0.0585938 C 952.78125 0.0585938 968.113281 0.4375 983.4375 1.1875 C 998.761719 1.941406 1014.058594 3.070312 1029.324219 4.574219 C 1044.59375 6.078125 1059.816406 7.957031 1074.992188 10.207031 C 1090.167969 12.457031 1105.277344 15.078125 1120.324219 18.074219 C 1135.371094 21.066406 1150.335938 24.425781 1165.21875 28.152344 C 1180.101562 31.882812 1194.882812 35.972656 1209.5625 40.425781 C 1224.246094 44.878906 1238.808594 49.691406 1253.253906 54.859375 C 1267.699219 60.027344 1282.007812 65.546875 1296.183594 71.417969 C 1310.355469 77.289062 1324.378906 83.503906 1338.246094 90.0625 C 1352.117188 96.625 1365.816406 103.519531 1379.347656 110.75 C 1392.875 117.984375 1406.222656 125.542969 1419.378906 133.429688 C 1432.539062 141.316406 1445.496094 149.523438 1458.253906 158.046875 C 1471.011719 166.570312 1483.550781 175.402344 1495.871094 184.542969 C 1508.195312 193.679688 1520.285156 203.117188 1532.144531 212.847656 C 1544.003906 222.582031 1555.617188 232.601562 1566.984375 242.902344 C 1578.355469 253.207031 1589.460938 263.78125 1600.308594 274.628906 C 1611.160156 285.476562 1621.734375 296.585938 1632.039062 307.953125 C 1642.339844 319.320312 1652.359375 330.933594 1662.089844 342.792969 C 1671.824219 354.652344 1681.257812 366.746094 1690.398438 379.066406 C 1699.539062 391.390625 1708.367188 403.929688 1716.890625 416.6875 C 1725.414062 429.441406 1733.621094 442.398438 1741.507812 455.558594 C 1749.394531 468.71875 1756.957031 482.0625 1764.1875 495.59375 C 1771.421875 509.125 1778.316406 522.824219 1784.875 536.691406 C 1791.433594 550.5625 1797.648438 564.582031 1803.519531 578.757812 C 1809.390625 592.929688 1814.914062 607.242188 1820.082031 621.6875 C 1825.25 636.132812 1830.058594 650.695312 1834.515625 665.375 C 1838.96875 680.058594 1843.058594 694.839844 1846.785156 709.71875 C 1850.511719 724.601562 1853.875 739.566406 1856.867188 754.613281 C 1859.859375 769.660156 1862.480469 784.773438 1864.734375 799.949219 C 1866.984375 815.125 1868.863281 830.347656 1870.367188 845.613281 C 1871.871094 860.882812 1873 876.179688 1873.75 891.5 C 1874.503906 906.824219 1874.878906 922.15625 1874.878906 937.5 Z M 1874.878906 937.5 " fill-opacity="1" fill-rule="nonzero"/></g><path fill="#1b1e36" d="M 1481.386719 937.5 C 1481.386719 946.402344 1481.167969 955.300781 1480.734375 964.191406 C 1480.296875 973.082031 1479.640625 981.957031 1478.769531 990.816406 C 1477.894531 999.675781 1476.804688 1008.507812 1475.5 1017.3125 C 1474.195312 1026.121094 1472.671875 1034.886719 1470.9375 1043.617188 C 1469.199219 1052.351562 1467.25 1061.03125 1465.085938 1069.667969 C 1462.921875 1078.304688 1460.550781 1086.878906 1457.964844 1095.398438 C 1455.382812 1103.917969 1452.589844 1112.367188 1449.589844 1120.75 C 1446.589844 1129.132812 1443.390625 1137.433594 1439.980469 1145.660156 C 1436.574219 1153.882812 1432.96875 1162.019531 1429.164062 1170.066406 C 1425.355469 1178.113281 1421.355469 1186.0625 1417.160156 1193.914062 C 1412.960938 1201.765625 1408.574219 1209.507812 1404 1217.144531 C 1399.421875 1224.78125 1394.660156 1232.300781 1389.714844 1239.699219 C 1384.769531 1247.101562 1379.644531 1254.378906 1374.34375 1261.527344 C 1369.039062 1268.679688 1363.566406 1275.695312 1357.917969 1282.578125 C 1352.269531 1289.457031 1346.457031 1296.195312 1340.476562 1302.792969 C 1334.5 1309.390625 1328.363281 1315.835938 1322.070312 1322.128906 C 1315.773438 1328.421875 1309.328125 1334.558594 1302.734375 1340.539062 C 1296.136719 1346.515625 1289.398438 1352.328125 1282.515625 1357.976562 C 1275.636719 1363.625 1268.621094 1369.101562 1261.46875 1374.402344 C 1254.320312 1379.707031 1247.042969 1384.828125 1239.640625 1389.777344 C 1232.238281 1394.722656 1224.71875 1399.484375 1217.085938 1404.058594 C 1209.449219 1408.636719 1201.707031 1413.023438 1193.855469 1417.21875 C 1186.003906 1421.414062 1178.054688 1425.417969 1170.007812 1429.222656 C 1161.960938 1433.027344 1153.824219 1436.636719 1145.597656 1440.042969 C 1137.375 1443.449219 1129.070312 1446.652344 1120.691406 1449.652344 C 1112.308594 1452.648438 1103.859375 1455.441406 1095.339844 1458.023438 C 1086.820312 1460.609375 1078.242188 1462.984375 1069.609375 1465.144531 C 1060.972656 1467.308594 1052.289062 1469.257812 1043.558594 1470.996094 C 1034.828125 1472.734375 1026.058594 1474.253906 1017.253906 1475.558594 C 1008.449219 1476.867188 999.617188 1477.957031 990.757812 1478.828125 C 981.898438 1479.699219 973.023438 1480.355469 964.128906 1480.792969 C 955.238281 1481.230469 946.34375 1481.449219 937.441406 1481.449219 C 928.539062 1481.449219 919.640625 1481.230469 910.75 1480.792969 C 901.859375 1480.355469 892.984375 1479.699219 884.125 1478.828125 C 875.265625 1477.957031 866.433594 1476.867188 857.625 1475.558594 C 848.820312 1474.253906 840.050781 1472.730469 831.320312 1470.996094 C 822.589844 1469.257812 813.90625 1467.308594 805.269531 1465.144531 C 796.636719 1462.984375 788.058594 1460.609375 779.539062 1458.023438 C 771.019531 1455.441406 762.570312 1452.648438 754.1875 1449.652344 C 745.808594 1446.652344 737.503906 1443.449219 729.28125 1440.042969 C 721.054688 1436.636719 712.917969 1433.027344 704.871094 1429.222656 C 696.824219 1425.417969 688.875 1421.414062 681.023438 1417.21875 C 673.171875 1413.023438 665.429688 1408.636719 657.796875 1404.058594 C 650.160156 1399.484375 642.640625 1394.722656 635.238281 1389.777344 C 627.835938 1384.828125 620.5625 1379.707031 613.410156 1374.402344 C 606.261719 1369.101562 599.246094 1363.625 592.363281 1357.976562 C 585.480469 1352.328125 578.742188 1346.515625 572.148438 1340.539062 C 565.550781 1334.558594 559.105469 1328.421875 552.8125 1322.128906 C 546.515625 1315.835938 540.378906 1309.390625 534.402344 1302.792969 C 528.421875 1296.195312 522.609375 1289.457031 516.960938 1282.578125 C 511.316406 1275.695312 505.839844 1268.679688 500.535156 1261.527344 C 495.234375 1254.378906 490.109375 1247.101562 485.164062 1239.699219 C 480.21875 1232.300781 475.457031 1224.78125 470.878906 1217.144531 C 466.304688 1209.507812 461.917969 1201.765625 457.722656 1193.914062 C 453.523438 1186.0625 449.523438 1178.113281 445.71875 1170.066406 C 441.910156 1162.019531 438.304688 1153.882812 434.898438 1145.660156 C 431.492188 1137.433594 428.289062 1129.132812 425.289062 1120.75 C 422.289062 1112.367188 419.5 1103.917969 416.914062 1095.398438 C 414.332031 1086.878906 411.957031 1078.304688 409.792969 1069.667969 C 407.628906 1061.03125 405.679688 1052.351562 403.945312 1043.617188 C 402.207031 1034.886719 400.6875 1026.121094 399.378906 1017.3125 C 398.074219 1008.507812 396.984375 999.675781 396.113281 990.816406 C 395.238281 981.957031 394.585938 973.082031 394.148438 964.191406 C 393.710938 955.300781 393.492188 946.402344 393.492188 937.5 C 393.492188 928.597656 393.710938 919.699219 394.148438 910.808594 C 394.585938 901.917969 395.238281 893.042969 396.113281 884.183594 C 396.984375 875.324219 398.074219 866.492188 399.378906 857.6875 C 400.6875 848.878906 402.207031 840.113281 403.945312 831.382812 C 405.679688 822.648438 407.628906 813.964844 409.792969 805.332031 C 411.957031 796.695312 414.332031 788.117188 416.914062 779.601562 C 419.5 771.082031 422.289062 762.632812 425.289062 754.25 C 428.289062 745.867188 431.492188 737.566406 434.898438 729.339844 C 438.304688 721.117188 441.910156 712.980469 445.71875 704.933594 C 449.523438 696.886719 453.523438 688.9375 457.722656 681.085938 C 461.917969 673.234375 466.304688 665.492188 470.878906 657.855469 C 475.457031 650.21875 480.21875 642.699219 485.164062 635.296875 C 490.109375 627.898438 495.234375 620.621094 500.535156 613.46875 C 505.839844 606.320312 511.316406 599.304688 516.960938 592.421875 C 522.609375 585.542969 528.421875 578.804688 534.402344 572.207031 C 540.378906 565.609375 546.515625 559.164062 552.8125 552.871094 C 559.105469 546.574219 565.550781 540.441406 572.148438 534.460938 C 578.742188 528.484375 585.480469 522.671875 592.363281 517.023438 C 599.246094 511.375 606.261719 505.898438 613.410156 500.597656 C 620.5625 495.292969 627.835938 490.167969 635.238281 485.222656 C 642.640625 480.277344 650.160156 475.515625 657.792969 470.941406 C 665.429688 466.363281 673.171875 461.976562 681.023438 457.78125 C 688.875 453.585938 696.824219 449.582031 704.871094 445.777344 C 712.917969 441.972656 721.054688 438.363281 729.28125 434.957031 C 737.503906 431.550781 745.808594 428.347656 754.1875 425.347656 C 762.570312 422.351562 771.019531 419.558594 779.539062 416.972656 C 788.058594 414.390625 796.636719 412.015625 805.269531 409.855469 C 813.90625 407.691406 822.589844 405.742188 831.320312 404.003906 C 840.050781 402.265625 848.820312 400.746094 857.625 399.441406 C 866.433594 398.132812 875.265625 397.042969 884.125 396.171875 C 892.984375 395.300781 901.859375 394.644531 910.75 394.207031 C 919.640625 393.769531 928.539062 393.550781 937.441406 393.550781 C 946.34375 393.550781 955.238281 393.769531 964.128906 394.207031 C 973.023438 394.644531 981.898438 395.300781 990.757812 396.171875 C 999.617188 397.042969 1008.449219 398.132812 1017.253906 399.441406 C 1026.058594 400.746094 1034.828125 402.265625 1043.558594 404.003906 C 1052.289062 405.742188 1060.972656 407.691406 1069.609375 409.855469 C 1078.242188 412.015625 1086.820312 414.390625 1095.339844 416.972656 C 1103.859375 419.558594 1112.308594 422.351562 1120.691406 425.347656 C 1129.070312 428.347656 1137.375 431.550781 1145.597656 434.957031 C 1153.824219 438.363281 1161.960938 441.972656 1170.007812 445.777344 C 1178.054688 449.582031 1186.003906 453.585938 1193.855469 457.78125 C 1201.707031 461.976562 1209.449219 466.363281 1217.085938 470.941406 C 1224.71875 475.515625 1232.238281 480.277344 1239.640625 485.222656 C 1247.042969 490.167969 1254.320312 495.292969 1261.46875 500.597656 C 1268.621094 505.898438 1275.636719 511.375 1282.515625 517.023438 C 1289.398438 522.671875 1296.136719 528.484375 1302.734375 534.460938 C 1309.328125 540.441406 1315.773438 546.574219 1322.070312 552.871094 C 1328.363281 559.164062 1334.5 565.609375 1340.480469 572.207031 C 1346.457031 578.804688 1352.269531 585.542969 1357.917969 592.421875 C 1363.566406 599.304688 1369.039062 606.320312 1374.34375 613.46875 C 1379.644531 620.621094 1384.769531 627.898438 1389.714844 635.296875 C 1394.660156 642.699219 1399.421875 650.21875 1404 657.855469 C 1408.574219 665.492188 1412.960938 673.234375 1417.160156 681.085938 C 1421.355469 688.9375 1425.355469 696.886719 1429.164062 704.933594 C 1432.96875 712.980469 1436.574219 721.117188 1439.980469 729.339844 C 1443.390625 737.566406 1446.589844 745.867188 1449.589844 754.25 C 1452.589844 762.632812 1455.382812 771.082031 1457.964844 779.601562 C 1460.550781 788.117188 1462.921875 796.695312 1465.085938 805.332031 C 1467.25 813.964844 1469.199219 822.648438 1470.9375 831.382812 C 1472.671875 840.113281 1474.195312 848.878906 1475.5 857.6875 C 1476.804688 866.492188 1477.894531 875.324219 1478.769531 884.183594 C 1479.640625 893.042969 1480.296875 901.917969 1480.734375 910.808594 C 1481.167969 919.699219 1481.386719 928.597656 1481.386719 937.5 Z M 1481.386719 937.5 " fill-opacity="1" fill-rule="nonzero"/><path fill="#6f7390" d="M 939.367188 119.65625 C 838.175781 119.65625 756.125 486.679688 756.125 939.433594 C 756.125 1392.1875 838.175781 1759.214844 939.367188 1759.214844 C 1040.558594 1759.214844 1122.609375 1392.1875 1122.609375 939.433594 C 1122.609375 486.679688 1040.558594 119.65625 939.367188 119.65625 Z M 952.019531 1712.949219 C 940.445312 1728.382812 928.875 1716.804688 928.875 1716.804688 C 882.273438 1662.808594 858.972656 1562.496094 858.972656 1562.496094 C 777.460938 1300.167969 796.863281 736.933594 796.863281 736.933594 C 835.167969 289.78125 904.855469 184.152344 928.566406 160.699219 C 929.167969 160.105469 929.816406 159.570312 930.511719 159.089844 C 931.207031 158.609375 931.9375 158.191406 932.707031 157.839844 C 933.472656 157.488281 934.265625 157.203125 935.082031 156.992188 C 935.898438 156.777344 936.730469 156.636719 937.570312 156.570312 C 938.414062 156.5 939.253906 156.507812 940.097656 156.585938 C 940.9375 156.664062 941.765625 156.816406 942.578125 157.042969 C 943.394531 157.265625 944.183594 157.558594 944.945312 157.921875 C 945.707031 158.285156 946.433594 158.710938 947.121094 159.199219 C 981.53125 183.582031 1010.386719 285.542969 1010.386719 285.542969 C 1095.605469 601.882812 1087.886719 898.929688 1087.886719 898.929688 C 1095.605469 1157.402344 1045.1875 1446.730469 1045.1875 1446.730469 C 1006.375 1666.617188 952.019531 1712.949219 952.019531 1712.949219 Z M 952.019531 1712.949219 " fill-opacity="1" fill-rule="nonzero"/><path fill="#6f7390" d="M 1650.433594 531.46875 C 1600.050781 443.664062 1240.894531 555.152344 847.984375 780.453125 C 455.078125 1005.753906 177.925781 1259.589844 228.269531 1347.355469 C 278.613281 1435.121094 637.8125 1323.671875 1030.71875 1098.371094 C 1423.625 873.070312 1700.777344 619.234375 1650.433594 531.46875 Z M 274.753906 1335.3125 C 255.464844 1332.882812 259.820312 1317.027344 259.820312 1317.027344 C 283.480469 1249.75 358.777344 1179.613281 358.777344 1179.613281 C 545.835938 978.355469 1044.074219 714.90625 1044.074219 714.90625 C 1450.953125 525.605469 1577.335938 533.589844 1609.398438 542.417969 C 1610.214844 542.644531 1611.003906 542.941406 1611.765625 543.308594 C 1612.53125 543.675781 1613.257812 544.105469 1613.945312 544.601562 C 1614.632812 545.09375 1615.273438 545.644531 1615.867188 546.253906 C 1616.457031 546.859375 1616.992188 547.515625 1617.46875 548.214844 C 1617.945312 548.914062 1618.355469 549.652344 1618.703125 550.425781 C 1619.050781 551.199219 1619.328125 551.996094 1619.535156 552.816406 C 1619.742188 553.640625 1619.875 554.472656 1619.9375 555.320312 C 1619.996094 556.164062 1619.984375 557.007812 1619.894531 557.851562 C 1616.042969 599.847656 1541.773438 675.59375 1541.773438 675.59375 C 1309.949219 907.023438 1048.433594 1048.179688 1048.433594 1048.179688 C 828.074219 1183.542969 552.015625 1283.730469 552.015625 1283.730469 C 341.964844 1359.421875 274.761719 1335.3125 274.761719 1335.3125 Z M 274.753906 1335.3125 " fill-opacity="1" fill-rule="nonzero"/><path fill="#6f7390" d="M 1648.65625 1350.28125 C 1699.429688 1262.710938 1422.972656 1007.710938 1031.445312 780.714844 C 639.917969 553.71875 280.804688 440.851562 230.078125 528.574219 C 179.351562 616.296875 455.761719 871.144531 847.511719 1098.140625 C 1239.265625 1325.136719 1597.929688 1438.011719 1648.65625 1350.28125 Z M 263.71875 562.410156 C 256.222656 544.628906 272.050781 540.347656 272.050781 540.347656 C 342.144531 527.109375 440.597656 557.273438 440.597656 557.273438 C 708.441406 618.269531 1186.050781 917.4375 1186.050781 917.4375 C 1553.773438 1174.753906 1610.167969 1288.09375 1618.621094 1320.269531 C 1618.835938 1321.085938 1618.976562 1321.917969 1619.042969 1322.761719 C 1619.109375 1323.605469 1619.101562 1324.445312 1619.023438 1325.289062 C 1618.941406 1326.132812 1618.789062 1326.960938 1618.5625 1327.773438 C 1618.339844 1328.589844 1618.042969 1329.378906 1617.679688 1330.144531 C 1617.316406 1330.90625 1616.886719 1331.632812 1616.394531 1332.320312 C 1615.902344 1333.007812 1615.355469 1333.648438 1614.75 1334.242188 C 1614.148438 1334.835938 1613.496094 1335.371094 1612.800781 1335.847656 C 1612.101562 1336.328125 1611.367188 1336.738281 1610.597656 1337.089844 C 1572.253906 1354.644531 1469.554688 1328.488281 1469.554688 1328.488281 C 1153.019531 1243.617188 899.875 1088.113281 899.875 1088.113281 C 672.421875 965.4375 447.511719 776.671875 447.511719 776.671875 C 276.613281 632.78125 263.773438 562.605469 263.773438 562.605469 Z M 263.71875 562.410156 " fill-opacity="1" fill-rule="nonzero"/><path fill="#b7b9c8" d="M 1033.882812 937.5 C 1033.882812 939.078125 1033.84375 940.65625 1033.769531 942.230469 C 1033.691406 943.808594 1033.574219 945.382812 1033.417969 946.953125 C 1033.265625 948.523438 1033.070312 950.089844 1032.839844 951.652344 C 1032.609375 953.210938 1032.339844 954.765625 1032.03125 956.316406 C 1031.722656 957.863281 1031.375 959.402344 1030.992188 960.933594 C 1030.609375 962.464844 1030.1875 963.984375 1029.730469 965.496094 C 1029.273438 967.007812 1028.777344 968.503906 1028.246094 969.992188 C 1027.714844 971.476562 1027.144531 972.949219 1026.542969 974.40625 C 1025.9375 975.867188 1025.300781 977.308594 1024.625 978.734375 C 1023.949219 980.160156 1023.238281 981.570312 1022.496094 982.964844 C 1021.75 984.355469 1020.972656 985.726562 1020.164062 987.082031 C 1019.351562 988.433594 1018.507812 989.769531 1017.628906 991.082031 C 1016.753906 992.394531 1015.84375 993.683594 1014.90625 994.953125 C 1013.964844 996.21875 1012.992188 997.464844 1011.992188 998.683594 C 1010.992188 999.902344 1009.960938 1001.097656 1008.898438 1002.269531 C 1007.839844 1003.4375 1006.753906 1004.578125 1005.636719 1005.695312 C 1004.519531 1006.8125 1003.378906 1007.898438 1002.207031 1008.960938 C 1001.039062 1010.019531 999.84375 1011.050781 998.625 1012.050781 C 997.402344 1013.054688 996.160156 1014.023438 994.890625 1014.964844 C 993.625 1015.90625 992.332031 1016.8125 991.019531 1017.691406 C 989.707031 1018.566406 988.375 1019.410156 987.023438 1020.222656 C 985.667969 1021.035156 984.296875 1021.8125 982.902344 1022.554688 C 981.511719 1023.300781 980.101562 1024.007812 978.675781 1024.683594 C 977.246094 1025.359375 975.804688 1026 974.347656 1026.601562 C 972.890625 1027.207031 971.417969 1027.773438 969.929688 1028.304688 C 968.445312 1028.835938 966.945312 1029.332031 965.4375 1029.789062 C 963.925781 1030.25 962.40625 1030.667969 960.875 1031.054688 C 959.34375 1031.4375 957.804688 1031.78125 956.253906 1032.089844 C 954.707031 1032.398438 953.152344 1032.667969 951.589844 1032.898438 C 950.03125 1033.132812 948.464844 1033.324219 946.894531 1033.480469 C 945.324219 1033.632812 943.75 1033.75 942.171875 1033.828125 C 940.597656 1033.90625 939.019531 1033.945312 937.441406 1033.945312 C 935.863281 1033.945312 934.285156 1033.90625 932.707031 1033.828125 C 931.132812 1033.75 929.558594 1033.632812 927.988281 1033.480469 C 926.414062 1033.324219 924.851562 1033.132812 923.289062 1032.898438 C 921.726562 1032.667969 920.171875 1032.398438 918.625 1032.089844 C 917.078125 1031.78125 915.535156 1031.4375 914.007812 1031.054688 C 912.476562 1030.667969 910.953125 1030.25 909.445312 1029.789062 C 907.933594 1029.332031 906.433594 1028.835938 904.949219 1028.304688 C 903.460938 1027.773438 901.992188 1027.207031 900.53125 1026.601562 C 899.074219 1026 897.632812 1025.359375 896.203125 1024.683594 C 894.777344 1024.007812 893.367188 1023.300781 891.976562 1022.554688 C 890.585938 1021.8125 889.210938 1021.035156 887.859375 1020.222656 C 886.503906 1019.410156 885.171875 1018.566406 883.859375 1017.691406 C 882.546875 1016.8125 881.257812 1015.90625 879.988281 1014.964844 C 878.71875 1014.023438 877.476562 1013.054688 876.257812 1012.050781 C 875.035156 1011.050781 873.839844 1010.019531 872.671875 1008.960938 C 871.503906 1007.898438 870.359375 1006.8125 869.242188 1005.695312 C 868.128906 1004.578125 867.039062 1003.4375 865.980469 1002.265625 C 864.917969 1001.097656 863.890625 999.902344 862.886719 998.683594 C 861.886719 997.464844 860.914062 996.21875 859.976562 994.953125 C 859.035156 993.683594 858.125 992.394531 857.25 991.082031 C 856.371094 989.769531 855.527344 988.433594 854.71875 987.082031 C 853.90625 985.726562 853.128906 984.355469 852.382812 982.964844 C 851.640625 981.570312 850.929688 980.160156 850.253906 978.734375 C 849.582031 977.308594 848.941406 975.867188 848.335938 974.40625 C 847.734375 972.949219 847.164062 971.476562 846.632812 969.992188 C 846.101562 968.503906 845.605469 967.007812 845.148438 965.496094 C 844.691406 963.984375 844.269531 962.464844 843.886719 960.933594 C 843.503906 959.402344 843.15625 957.863281 842.847656 956.316406 C 842.542969 954.765625 842.273438 953.210938 842.039062 951.652344 C 841.808594 950.089844 841.613281 948.523438 841.460938 946.953125 C 841.304688 945.382812 841.191406 943.808594 841.113281 942.230469 C 841.035156 940.65625 840.996094 939.078125 840.996094 937.5 C 840.996094 935.921875 841.035156 934.34375 841.113281 932.769531 C 841.191406 931.191406 841.304688 929.617188 841.460938 928.046875 C 841.613281 926.476562 841.808594 924.910156 842.039062 923.347656 C 842.273438 921.789062 842.542969 920.234375 842.847656 918.683594 C 843.15625 917.136719 843.503906 915.597656 843.886719 914.066406 C 844.269531 912.535156 844.691406 911.015625 845.148438 909.503906 C 845.605469 907.992188 846.101562 906.496094 846.632812 905.007812 C 847.164062 903.523438 847.734375 902.050781 848.335938 900.59375 C 848.941406 899.132812 849.582031 897.691406 850.253906 896.265625 C 850.929688 894.839844 851.640625 893.429688 852.382812 892.035156 C 853.128906 890.644531 853.90625 889.273438 854.71875 887.917969 C 855.527344 886.5625 856.371094 885.230469 857.25 883.917969 C 858.125 882.605469 859.035156 881.316406 859.976562 880.046875 C 860.914062 878.78125 861.886719 877.535156 862.886719 876.316406 C 863.890625 875.097656 864.917969 873.902344 865.980469 872.730469 C 867.039062 871.5625 868.128906 870.417969 869.242188 869.304688 C 870.359375 868.1875 871.503906 867.101562 872.671875 866.039062 C 873.839844 864.980469 875.035156 863.949219 876.257812 862.949219 C 877.476562 861.945312 878.71875 860.976562 879.988281 860.035156 C 881.257812 859.09375 882.546875 858.1875 883.859375 857.308594 C 885.171875 856.433594 886.503906 855.589844 887.859375 854.777344 C 889.210938 853.964844 890.585938 853.1875 891.976562 852.445312 C 893.367188 851.699219 894.777344 850.992188 896.203125 850.316406 C 897.632812 849.640625 899.074219 849 900.53125 848.398438 C 901.992188 847.792969 903.460938 847.226562 904.949219 846.695312 C 906.433594 846.160156 907.933594 845.667969 909.445312 845.207031 C 910.953125 844.75 912.476562 844.328125 914.007812 843.945312 C 915.535156 843.5625 917.078125 843.21875 918.625 842.910156 C 920.171875 842.601562 921.726562 842.332031 923.289062 842.101562 C 924.851562 841.867188 926.414062 841.675781 927.988281 841.519531 C 929.558594 841.367188 931.132812 841.25 932.707031 841.171875 C 934.285156 841.09375 935.863281 841.054688 937.441406 841.054688 C 939.019531 841.054688 940.597656 841.09375 942.171875 841.171875 C 943.75 841.25 945.324219 841.367188 946.894531 841.519531 C 948.464844 841.675781 950.03125 841.867188 951.589844 842.101562 C 953.152344 842.332031 954.707031 842.601562 956.253906 842.910156 C 957.804688 843.21875 959.34375 843.5625 960.875 843.945312 C 962.40625 844.328125 963.925781 844.75 965.4375 845.207031 C 966.945312 845.667969 968.445312 846.160156 969.929688 846.695312 C 971.417969 847.226562 972.890625 847.792969 974.347656 848.398438 C 975.804688 849 977.246094 849.640625 978.675781 850.316406 C 980.101562 850.992188 981.511719 851.699219 982.902344 852.445312 C 984.296875 853.1875 985.667969 853.964844 987.023438 854.777344 C 988.375 855.589844 989.707031 856.433594 991.019531 857.308594 C 992.332031 858.1875 993.625 859.09375 994.890625 860.035156 C 996.160156 860.976562 997.402344 861.945312 998.625 862.949219 C 999.84375 863.949219 1001.039062 864.980469 1002.207031 866.039062 C 1003.378906 867.101562 1004.519531 868.1875 1005.636719 869.304688 C 1006.753906 870.417969 1007.839844 871.5625 1008.898438 872.730469 C 1009.960938 873.902344 1010.992188 875.097656 1011.992188 876.316406 C 1012.992188 877.535156 1013.964844 878.78125 1014.90625 880.046875 C 1015.84375 881.316406 1016.753906 882.605469 1017.628906 883.917969 C 1018.507812 885.230469 1019.351562 886.5625 1020.164062 887.917969 C 1020.972656 889.273438 1021.75 890.644531 1022.496094 892.035156 C 1023.238281 893.429688 1023.949219 894.839844 1024.625 896.265625 C 1025.300781 897.691406 1025.9375 899.132812 1026.542969 900.59375 C 1027.144531 902.050781 1027.714844 903.523438 1028.246094 905.007812 C 1028.777344 906.496094 1029.273438 907.992188 1029.730469 909.503906 C 1030.1875 911.015625 1030.609375 912.535156 1030.992188 914.066406 C 1031.375 915.597656 1031.722656 917.136719 1032.03125 918.683594 C 1032.339844 920.234375 1032.609375 921.789062 1032.839844 923.347656 C 1033.070312 924.910156 1033.265625 926.476562 1033.417969 928.046875 C 1033.574219 929.617188 1033.691406 931.191406 1033.769531 932.769531 C 1033.84375 934.34375 1033.882812 935.921875 1033.882812 937.5 Z M 1033.882812 937.5 " fill-opacity="1" fill-rule="nonzero"/><path fill="#b7b9c8" d="M 1388.796875 567.152344 C 1388.796875 569.046875 1388.707031 570.9375 1388.53125 572.824219 C 1388.347656 574.710938 1388.082031 576.582031 1387.722656 578.441406 C 1387.367188 580.300781 1386.921875 582.136719 1386.390625 583.949219 C 1385.859375 585.761719 1385.242188 587.542969 1384.539062 589.296875 C 1383.839844 591.046875 1383.058594 592.757812 1382.191406 594.429688 C 1381.328125 596.101562 1380.390625 597.722656 1379.371094 599.300781 C 1378.351562 600.875 1377.261719 602.394531 1376.101562 603.859375 C 1374.9375 605.324219 1373.710938 606.730469 1372.414062 608.070312 C 1371.117188 609.410156 1369.761719 610.679688 1368.347656 611.882812 C 1366.929688 613.085938 1365.460938 614.210938 1363.9375 615.265625 C 1362.414062 616.316406 1360.84375 617.292969 1359.230469 618.183594 C 1357.613281 619.078125 1355.960938 619.886719 1354.265625 620.613281 C 1352.574219 621.335938 1350.851562 621.976562 1349.097656 622.527344 C 1347.34375 623.074219 1345.570312 623.535156 1343.773438 623.90625 C 1341.976562 624.273438 1340.164062 624.554688 1338.34375 624.738281 C 1336.519531 624.925781 1334.691406 625.015625 1332.859375 625.015625 C 1331.027344 625.015625 1329.199219 624.925781 1327.375 624.738281 C 1325.554688 624.554688 1323.742188 624.273438 1321.945312 623.90625 C 1320.148438 623.535156 1318.375 623.074219 1316.621094 622.527344 C 1314.867188 621.976562 1313.144531 621.335938 1311.453125 620.613281 C 1309.761719 619.886719 1308.105469 619.078125 1306.488281 618.183594 C 1304.875 617.292969 1303.304688 616.316406 1301.78125 615.265625 C 1300.257812 614.210938 1298.789062 613.085938 1297.371094 611.882812 C 1295.957031 610.679688 1294.601562 609.410156 1293.304688 608.070312 C 1292.007812 606.730469 1290.78125 605.328125 1289.617188 603.859375 C 1288.457031 602.394531 1287.367188 600.875 1286.347656 599.300781 C 1285.332031 597.722656 1284.390625 596.101562 1283.527344 594.429688 C 1282.664062 592.757812 1281.878906 591.046875 1281.179688 589.296875 C 1280.476562 587.542969 1279.859375 585.761719 1279.328125 583.949219 C 1278.796875 582.136719 1278.351562 580.300781 1277.996094 578.441406 C 1277.636719 576.582031 1277.371094 574.710938 1277.191406 572.824219 C 1277.011719 570.9375 1276.921875 569.046875 1276.921875 567.152344 C 1276.921875 565.257812 1277.011719 563.367188 1277.191406 561.480469 C 1277.371094 559.59375 1277.636719 557.722656 1277.996094 555.863281 C 1278.351562 554.003906 1278.796875 552.167969 1279.328125 550.351562 C 1279.859375 548.539062 1280.476562 546.757812 1281.179688 545.007812 C 1281.878906 543.253906 1282.664062 541.542969 1283.527344 539.875 C 1284.390625 538.203125 1285.332031 536.578125 1286.347656 535.003906 C 1287.367188 533.425781 1288.457031 531.90625 1289.617188 530.441406 C 1290.78125 528.976562 1292.007812 527.574219 1293.304688 526.234375 C 1294.601562 524.894531 1295.957031 523.621094 1297.371094 522.417969 C 1298.789062 521.21875 1300.257812 520.089844 1301.78125 519.035156 C 1303.304688 517.984375 1304.875 517.011719 1306.488281 516.117188 C 1308.105469 515.222656 1309.761719 514.414062 1311.453125 513.691406 C 1313.144531 512.964844 1314.867188 512.328125 1316.621094 511.777344 C 1318.375 511.226562 1320.148438 510.765625 1321.945312 510.398438 C 1323.742188 510.027344 1325.554688 509.75 1327.375 509.5625 C 1329.199219 509.378906 1331.027344 509.285156 1332.859375 509.285156 C 1334.691406 509.285156 1336.519531 509.378906 1338.34375 509.5625 C 1340.164062 509.75 1341.976562 510.027344 1343.773438 510.398438 C 1345.570312 510.765625 1347.34375 511.226562 1349.097656 511.777344 C 1350.851562 512.328125 1352.574219 512.964844 1354.265625 513.691406 C 1355.960938 514.414062 1357.613281 515.222656 1359.230469 516.117188 C 1360.84375 517.011719 1362.414062 517.984375 1363.9375 519.035156 C 1365.460938 520.089844 1366.929688 521.21875 1368.347656 522.417969 C 1369.761719 523.621094 1371.117188 524.894531 1372.414062 526.234375 C 1373.710938 527.574219 1374.9375 528.976562 1376.101562 530.441406 C 1377.261719 531.90625 1378.351562 533.425781 1379.371094 535.003906 C 1380.390625 536.578125 1381.328125 538.203125 1382.191406 539.875 C 1383.058594 541.542969 1383.839844 543.253906 1384.539062 545.007812 C 1385.242188 546.757812 1385.859375 548.539062 1386.390625 550.351562 C 1386.921875 552.167969 1387.367188 554.003906 1387.722656 555.863281 C 1388.082031 557.722656 1388.347656 559.59375 1388.53125 561.480469 C 1388.707031 563.367188 1388.796875 565.257812 1388.796875 567.152344 Z M 1388.796875 567.152344 " fill-opacity="1" fill-rule="nonzero"/><path fill="#b7b9c8" d="M 470.648438 763.902344 C 470.648438 765.796875 470.558594 767.6875 470.378906 769.574219 C 470.199219 771.457031 469.929688 773.332031 469.574219 775.191406 C 469.214844 777.050781 468.769531 778.886719 468.238281 780.699219 C 467.707031 782.511719 467.089844 784.292969 466.390625 786.046875 C 465.6875 787.796875 464.90625 789.507812 464.042969 791.179688 C 463.179688 792.851562 462.238281 794.472656 461.21875 796.050781 C 460.203125 797.625 459.113281 799.144531 457.949219 800.609375 C 456.789062 802.074219 455.558594 803.476562 454.261719 804.820312 C 452.96875 806.160156 451.613281 807.429688 450.195312 808.632812 C 448.78125 809.835938 447.308594 810.960938 445.785156 812.015625 C 444.261719 813.066406 442.695312 814.039062 441.078125 814.933594 C 439.460938 815.828125 437.808594 816.636719 436.117188 817.363281 C 434.421875 818.085938 432.699219 818.726562 430.945312 819.277344 C 429.195312 819.824219 427.417969 820.285156 425.621094 820.65625 C 423.824219 821.023438 422.015625 821.304688 420.191406 821.488281 C 418.367188 821.675781 416.539062 821.765625 414.707031 821.765625 C 412.875 821.765625 411.046875 821.675781 409.226562 821.488281 C 407.402344 821.304688 405.59375 821.023438 403.796875 820.65625 C 402 820.285156 400.222656 819.824219 398.46875 819.277344 C 396.71875 818.726562 394.992188 818.085938 393.300781 817.363281 C 391.609375 816.636719 389.953125 815.828125 388.339844 814.933594 C 386.722656 814.039062 385.152344 813.066406 383.628906 812.015625 C 382.105469 810.960938 380.636719 809.835938 379.222656 808.632812 C 377.804688 807.429688 376.449219 806.160156 375.152344 804.820312 C 373.859375 803.476562 372.628906 802.074219 371.46875 800.609375 C 370.304688 799.144531 369.214844 797.625 368.195312 796.050781 C 367.179688 794.472656 366.238281 792.851562 365.375 791.179688 C 364.511719 789.507812 363.730469 787.796875 363.027344 786.046875 C 362.328125 784.292969 361.710938 782.511719 361.179688 780.699219 C 360.644531 778.886719 360.203125 777.050781 359.84375 775.191406 C 359.488281 773.332031 359.21875 771.457031 359.039062 769.574219 C 358.859375 767.6875 358.769531 765.796875 358.769531 763.902344 C 358.769531 762.003906 358.859375 760.117188 359.039062 758.230469 C 359.21875 756.34375 359.488281 754.46875 359.84375 752.613281 C 360.203125 750.753906 360.644531 748.917969 361.179688 747.101562 C 361.710938 745.289062 362.328125 743.507812 363.027344 741.757812 C 363.730469 740.003906 364.511719 738.292969 365.375 736.621094 C 366.238281 734.953125 367.179688 733.328125 368.195312 731.753906 C 369.214844 730.175781 370.304688 728.65625 371.46875 727.191406 C 372.628906 725.726562 373.859375 724.324219 375.152344 722.984375 C 376.449219 721.644531 377.804688 720.371094 379.222656 719.167969 C 380.636719 717.96875 382.105469 716.839844 383.628906 715.785156 C 385.152344 714.734375 386.722656 713.761719 388.339844 712.867188 C 389.953125 711.972656 391.609375 711.164062 393.300781 710.441406 C 394.992188 709.714844 396.71875 709.078125 398.46875 708.527344 C 400.222656 707.976562 402 707.515625 403.796875 707.148438 C 405.59375 706.777344 407.402344 706.5 409.226562 706.3125 C 411.046875 706.128906 412.875 706.035156 414.707031 706.035156 C 416.539062 706.035156 418.367188 706.128906 420.191406 706.3125 C 422.015625 706.5 423.824219 706.777344 425.621094 707.148438 C 427.417969 707.515625 429.195312 707.976562 430.945312 708.527344 C 432.699219 709.078125 434.421875 709.714844 436.117188 710.441406 C 437.808594 711.164062 439.460938 711.972656 441.078125 712.867188 C 442.695312 713.761719 444.261719 714.734375 445.785156 715.785156 C 447.308594 716.839844 448.78125 717.96875 450.195312 719.167969 C 451.613281 720.371094 452.96875 721.644531 454.261719 722.984375 C 455.558594 724.324219 456.789062 725.726562 457.949219 727.191406 C 459.113281 728.65625 460.203125 730.175781 461.21875 731.753906 C 462.238281 733.328125 463.179688 734.953125 464.042969 736.621094 C 464.90625 738.292969 465.6875 740.003906 466.390625 741.757812 C 467.089844 743.507812 467.707031 745.289062 468.238281 747.101562 C 468.769531 748.917969 469.214844 750.753906 469.574219 752.613281 C 469.929688 754.46875 470.199219 756.34375 470.378906 758.230469 C 470.558594 760.117188 470.648438 762.003906 470.648438 763.902344 Z M 470.648438 763.902344 " fill-opacity="1" fill-rule="nonzero"/><path fill="#b7b9c8" d="M 879.574219 1473.730469 C 879.574219 1475.625 879.484375 1477.515625 879.304688 1479.402344 C 879.125 1481.289062 878.855469 1483.160156 878.5 1485.019531 C 878.140625 1486.878906 877.695312 1488.714844 877.164062 1490.527344 C 876.632812 1492.339844 876.015625 1494.125 875.316406 1495.875 C 874.613281 1497.625 873.832031 1499.335938 872.96875 1501.007812 C 872.105469 1502.679688 871.164062 1504.304688 870.144531 1505.878906 C 869.128906 1507.457031 868.039062 1508.976562 866.875 1510.441406 C 865.714844 1511.90625 864.484375 1513.308594 863.191406 1514.648438 C 861.894531 1515.988281 860.539062 1517.257812 859.121094 1518.460938 C 857.707031 1519.664062 856.234375 1520.792969 854.710938 1521.84375 C 853.191406 1522.898438 851.621094 1523.871094 850.003906 1524.765625 C 848.386719 1525.65625 846.734375 1526.464844 845.042969 1527.191406 C 843.347656 1527.917969 841.625 1528.554688 839.871094 1529.105469 C 838.121094 1529.65625 836.34375 1530.113281 834.546875 1530.484375 C 832.75 1530.855469 830.941406 1531.132812 829.117188 1531.316406 C 827.292969 1531.503906 825.46875 1531.597656 823.632812 1531.597656 C 821.800781 1531.597656 819.976562 1531.503906 818.152344 1531.316406 C 816.328125 1531.132812 814.519531 1530.855469 812.722656 1530.484375 C 810.925781 1530.113281 809.148438 1529.65625 807.398438 1529.105469 C 805.644531 1528.554688 803.921875 1527.917969 802.226562 1527.191406 C 800.535156 1526.464844 798.882812 1525.65625 797.265625 1524.765625 C 795.648438 1523.871094 794.078125 1522.898438 792.554688 1521.84375 C 791.035156 1520.792969 789.5625 1519.664062 788.148438 1518.460938 C 786.730469 1517.257812 785.375 1515.988281 784.078125 1514.648438 C 782.785156 1513.308594 781.554688 1511.90625 780.394531 1510.441406 C 779.230469 1508.976562 778.140625 1507.457031 777.125 1505.878906 C 776.105469 1504.304688 775.164062 1502.679688 774.300781 1501.007812 C 773.4375 1499.335938 772.65625 1497.625 771.953125 1495.875 C 771.253906 1494.125 770.636719 1492.34375 770.105469 1490.527344 C 769.574219 1488.714844 769.128906 1486.878906 768.769531 1485.019531 C 768.414062 1483.160156 768.144531 1481.289062 767.964844 1479.402344 C 767.785156 1477.515625 767.695312 1475.625 767.695312 1473.730469 C 767.695312 1471.835938 767.785156 1469.945312 767.964844 1468.058594 C 768.144531 1466.171875 768.414062 1464.300781 768.769531 1462.441406 C 769.128906 1460.582031 769.574219 1458.746094 770.105469 1456.933594 C 770.636719 1455.121094 771.253906 1453.335938 771.953125 1451.585938 C 772.65625 1449.835938 773.4375 1448.125 774.300781 1446.453125 C 775.164062 1444.78125 776.105469 1443.15625 777.125 1441.582031 C 778.140625 1440.007812 779.230469 1438.484375 780.394531 1437.019531 C 781.554688 1435.554688 782.785156 1434.152344 784.078125 1432.8125 C 785.375 1431.472656 786.730469 1430.203125 788.148438 1429 C 789.5625 1427.796875 791.035156 1426.667969 792.554688 1425.617188 C 794.078125 1424.5625 795.648438 1423.589844 797.265625 1422.695312 C 798.882812 1421.804688 800.535156 1420.996094 802.226562 1420.269531 C 803.921875 1419.542969 805.644531 1418.90625 807.398438 1418.355469 C 809.148438 1417.804688 810.925781 1417.347656 812.722656 1416.976562 C 814.519531 1416.605469 816.328125 1416.328125 818.152344 1416.144531 C 819.976562 1415.957031 821.800781 1415.863281 823.632812 1415.863281 C 825.46875 1415.863281 827.292969 1415.957031 829.117188 1416.144531 C 830.941406 1416.328125 832.75 1416.605469 834.546875 1416.976562 C 836.34375 1417.347656 838.121094 1417.804688 839.875 1418.355469 C 841.625 1418.90625 843.347656 1419.542969 845.042969 1420.269531 C 846.734375 1420.996094 848.386719 1421.804688 850.003906 1422.695312 C 851.621094 1423.589844 853.191406 1424.5625 854.710938 1425.617188 C 856.234375 1426.667969 857.707031 1427.796875 859.121094 1429 C 860.539062 1430.203125 861.894531 1431.472656 863.191406 1432.8125 C 864.484375 1434.152344 865.714844 1435.554688 866.875 1437.019531 C 868.039062 1438.484375 869.128906 1440.007812 870.144531 1441.582031 C 871.164062 1443.15625 872.105469 1444.78125 872.96875 1446.453125 C 873.832031 1448.125 874.613281 1449.835938 875.316406 1451.585938 C 876.015625 1453.335938 876.632812 1455.121094 877.164062 1456.933594 C 877.695312 1458.746094 878.140625 1460.582031 878.5 1462.441406 C 878.855469 1464.300781 879.125 1466.171875 879.304688 1468.058594 C 879.484375 1469.945312 879.574219 1471.835938 879.574219 1473.730469 Z M 879.574219 1473.730469 " fill-opacity="1" fill-rule="nonzero"/></svg>