<?xml version="1.0" encoding="utf-8"?>
<svg version="1.1" id="Layer_1" x="0px" y="0px" viewBox="0 0 122 122" style="enable-background:new 0 0 122 122;" xmlns="http://www.w3.org/2000/svg">
  <style type="text/css">
	.st0{fill:#1B1B1B;stroke:#FFFFFF;stroke-width:4;}
	.st1{fill-rule:evenodd;clip-rule:evenodd;fill:#FFFFFF;}
	.st2{fill:none;stroke:#FFFFFF;stroke-width:2;stroke-linecap:round;}
</style>
  <rect x="0.204" y="-0.24" width="121.781" height="122.283" style="stroke: rgb(0, 0, 0);"/>
  <path class="st1" d="M 83.223 39.752 C 84.226 40.758 85.856 40.631 86.609 39.5 C 87.362 38.619 87.236 37.236 86.358 36.483 C 78.081 28.562 70.683 24.539 58.393 25.167 C 45.477 25.795 34.065 32.586 34.818 46.918 C 35.445 59.616 47.734 64.266 58.519 68.417 C 66.795 71.56 74.069 74.325 74.445 80.233 C 74.821 86.772 68.175 90.67 62.407 91.046 C 51.496 91.675 45.101 87.777 37.953 80.862 C 37.075 79.983 35.696 79.983 34.818 80.737 C 33.815 81.616 33.815 83.125 34.692 84.131 C 42.718 92.177 50.995 96.201 63.034 95.573 C 75.072 94.693 89.87 87.902 89.117 73.57 C 88.49 61.124 76.703 56.473 66.043 52.45 C 57.265 49.054 49.114 45.91 48.738 38.745 C 48.487 33.591 54.632 29.819 59.02 29.568 C 69.679 29.065 76.326 32.837 83.223 39.752 Z M 84.602 73.822 C 84.602 79.354 81.593 84.131 77.078 86.897 L 76.827 86.772 C 78.458 84.509 78.708 81.616 78.708 78.852 C 78.708 70.678 69.805 67.536 60.4 64.142 C 49.992 60.371 39.082 56.473 39.082 45.408 C 39.082 40.379 41.339 34.974 45.728 32.459 L 45.854 32.711 C 44.725 35.1 44.223 37.739 44.223 40.379 C 44.223 49.433 54.13 53.077 64.162 56.848 C 74.445 60.621 84.602 64.393 84.602 73.822 Z" style=""/>
</svg>