<svg xmlns="http://www.w3.org/2000/svg" xmlns:xlink="http://www.w3.org/1999/xlink" width="2500" zoomAndPan="magnify" viewBox="0 0 1874.88 1874.999927" height="2500" preserveAspectRatio="xMidYMid meet" version="1.0"><defs><clipPath id="id1"><path d="M 0 0.0585938 L 1874.761719 0.0585938 L 1874.761719 1874.9375 L 0 1874.9375 Z M 0 0.0585938 " clip-rule="nonzero"/></clipPath><clipPath id="id2"><path d="M 3 0.0585938 L 1874.761719 0.0585938 L 1874.761719 1874.9375 L 3 1874.9375 Z M 3 0.0585938 " clip-rule="nonzero"/></clipPath><clipPath id="id3"><path d="M 0 0.0585938 L 1874.761719 0.0585938 L 1874.761719 1874.9375 L 0 1874.9375 Z M 0 0.0585938 " clip-rule="nonzero"/></clipPath></defs><g clip-path="url(#id1)"><path fill="#ffffff" d="M 0 0.0585938 L 1874.878906 0.0585938 L 1874.878906 1882.4375 L 0 1882.4375 Z M 0 0.0585938 " fill-opacity="1" fill-rule="nonzero"/><path fill="#ffffff" d="M 0 0.0585938 L 1874.878906 0.0585938 L 1874.878906 1874.941406 L 0 1874.941406 Z M 0 0.0585938 " fill-opacity="1" fill-rule="nonzero"/><path fill="#ffffff" d="M 0 0.0585938 L 1874.878906 0.0585938 L 1874.878906 1874.941406 L 0 1874.941406 Z M 0 0.0585938 " fill-opacity="1" fill-rule="nonzero"/><path fill="#ffffff" d="M 0 0.0585938 L 1874.878906 0.0585938 L 1874.878906 1874.941406 L 0 1874.941406 Z M 0 0.0585938 " fill-opacity="1" fill-rule="nonzero"/></g><g clip-path="url(#id2)"><path fill="#000000" d="M 3.136719 -3.628906 L 1874.648438 -3.628906 L 1874.648438 1875.601562 L 3.136719 1875.601562 Z M 3.136719 -3.628906 " fill-opacity="1" fill-rule="nonzero"/></g><g clip-path="url(#id3)"><path stroke-linecap="butt" transform="matrix(15.367869, 0, 0, 15.367869, 0, 0.0599635)" fill="none" stroke-linejoin="miter" d="M 0.204109 -0.240038 L 121.984932 -0.240038 L 121.984932 122.043051 L 0.204109 122.043051 Z M 0.204109 -0.240038 " stroke="#000000" stroke-width="1" stroke-opacity="1" stroke-miterlimit="4"/></g><path fill="#ffffff" d="M 1278.960938 610.964844 C 1294.375 626.421875 1319.421875 624.472656 1330.996094 607.089844 C 1342.566406 593.550781 1340.632812 572.296875 1327.136719 560.726562 C 1199.9375 438.996094 1086.246094 377.171875 897.375 386.824219 C 698.882812 396.472656 523.507812 500.835938 535.078125 721.089844 C 544.714844 916.230469 733.570312 987.691406 899.3125 1051.484375 C 1026.496094 1099.785156 1138.28125 1142.277344 1144.0625 1233.070312 C 1149.839844 1333.5625 1047.703125 1393.464844 959.0625 1399.242188 C 791.382812 1408.910156 693.105469 1349.003906 583.257812 1242.738281 C 569.765625 1229.226562 548.570312 1229.226562 535.078125 1240.816406 C 519.664062 1254.324219 519.664062 1277.515625 533.140625 1292.972656 C 656.484375 1416.625 783.683594 1478.464844 968.699219 1468.8125 C 1153.695312 1455.289062 1381.109375 1350.925781 1369.539062 1130.675781 C 1359.902344 939.40625 1178.761719 867.929688 1014.941406 806.105469 C 880.039062 753.914062 754.777344 705.597656 749 595.488281 C 745.140625 516.28125 839.578125 458.3125 907.011719 454.457031 C 1070.816406 446.726562 1172.96875 504.695312 1278.960938 610.964844 Z M 1300.152344 1134.546875 C 1300.152344 1219.5625 1253.910156 1292.972656 1184.523438 1335.480469 L 1180.667969 1333.5625 C 1205.730469 1298.785156 1209.574219 1254.324219 1209.574219 1211.847656 C 1209.574219 1086.230469 1072.753906 1037.945312 928.21875 985.785156 C 768.269531 927.832031 600.605469 867.929688 600.605469 697.882812 C 600.605469 620.597656 635.292969 537.535156 702.742188 498.886719 L 704.679688 502.757812 C 687.328125 539.472656 679.613281 580.027344 679.613281 620.597656 C 679.613281 759.738281 831.863281 815.742188 986.035156 873.691406 C 1144.0625 931.675781 1300.152344 989.644531 1300.152344 1134.546875 Z M 1300.152344 1134.546875 " fill-opacity="1" fill-rule="evenodd"/></svg>