<?xml version="1.0" encoding="utf-8"?>
<svg id="Layer_1" data-name="Layer 1" viewBox="0 0 339.43 295.27" xmlns="http://www.w3.org/2000/svg">
  <title>tether-usdt-logo</title>
  <path d="M 73.899 22.501 L 20.226 137.435 C 19.806 138.313 19.996 139.366 20.694 140.035 L 165.65 281.642 C 166.505 282.479 167.856 282.479 168.712 281.642 L 313.668 140.042 C 314.365 139.375 314.555 138.322 314.136 137.444 L 260.464 22.509 C 260.11 21.721 259.337 21.216 258.487 21.219 L 75.893 21.219 C 75.038 21.207 74.258 21.709 73.899 22.501 Z" style="fill: rgb(80, 175, 149); fill-rule: evenodd;"/>
  <path d="M 185.805 149.239 C 184.764 149.317 179.388 149.644 167.393 149.644 C 157.854 149.644 151.081 149.353 148.705 149.239 C 111.84 147.585 84.323 141.042 84.323 133.209 C 84.323 125.376 111.84 118.842 148.705 117.163 L 148.705 142.721 C 151.116 142.899 158.019 143.315 167.558 143.315 C 179.005 143.315 184.738 142.828 185.77 142.731 L 185.77 117.18 C 222.557 118.851 250.014 125.394 250.014 133.209 C 250.014 141.024 222.566 147.567 185.77 149.229 L 185.805 149.239 Z M 185.805 114.537 L 185.805 91.664 L 237.145 91.664 L 237.145 56.787 L 97.365 56.787 L 97.365 91.664 L 148.696 91.664 L 148.696 114.528 C 106.974 116.482 75.598 124.908 75.598 135.003 C 75.598 145.1 106.974 153.516 148.696 155.48 L 148.696 228.772 L 185.796 228.772 L 185.796 155.453 C 227.423 153.5 258.747 145.082 258.747 134.995 C 258.747 124.908 227.449 116.49 185.796 114.528 L 185.805 114.537 Z M 185.805 114.537 Z" style="fill: rgb(255, 255, 255); fill-rule: evenodd;"/>
</svg>