<svg xmlns="http://www.w3.org/2000/svg" xmlns:xlink="http://www.w3.org/1999/xlink" width="2500" zoomAndPan="magnify" viewBox="0 0 1874.88 1874.999927" height="2500" preserveAspectRatio="xMidYMid meet" version="1.0"><defs><clipPath id="id1"><path d="M 0 0.0585938 L 1874.761719 0.0585938 L 1874.761719 1874.9375 L 0 1874.9375 Z M 0 0.0585938 " clip-rule="nonzero"/></clipPath><clipPath id="id2"><path d="M 91.132812 310 L 1783.773438 310 L 1783.773438 1783 L 91.132812 1783 Z M 91.132812 310 " clip-rule="nonzero"/></clipPath></defs><g clip-path="url(#id1)"><path fill="#ffffff" d="M 0 0.0585938 L 1874.878906 0.0585938 L 1874.878906 1882.4375 L 0 1882.4375 Z M 0 0.0585938 " fill-opacity="1" fill-rule="nonzero"/><path fill="#50af95" d="M 0 0.0585938 L 1874.878906 0.0585938 L 1874.878906 1874.941406 L 0 1874.941406 Z M 0 0.0585938 " fill-opacity="1" fill-rule="nonzero"/><path fill="#ffffff" d="M 0 0.0585938 L 1874.878906 0.0585938 L 1874.878906 1874.941406 L 0 1874.941406 Z M 0 0.0585938 " fill-opacity="1" fill-rule="nonzero"/><path fill="#50af95" d="M 0 0.0585938 L 1874.878906 0.0585938 L 1874.878906 1874.941406 L 0 1874.941406 Z M 0 0.0585938 " fill-opacity="1" fill-rule="nonzero"/></g><g clip-path="url(#id2)"><path fill="#50af95" d="M 401.058594 317.324219 L 92.429688 965.71875 C 92.136719 966.316406 91.894531 966.9375 91.703125 967.574219 C 91.507812 968.210938 91.367188 968.859375 91.277344 969.519531 C 91.1875 970.179688 91.148438 970.84375 91.164062 971.511719 C 91.179688 972.175781 91.246094 972.839844 91.367188 973.492188 C 91.488281 974.148438 91.660156 974.789062 91.882812 975.417969 C 92.105469 976.046875 92.375 976.652344 92.695312 977.238281 C 93.011719 977.824219 93.375 978.378906 93.785156 978.90625 C 94.191406 979.433594 94.636719 979.925781 95.121094 980.382812 L 928.652344 1779.253906 C 929.238281 1779.816406 929.875 1780.316406 930.554688 1780.757812 C 931.238281 1781.199219 931.957031 1781.570312 932.710938 1781.875 C 933.464844 1782.179688 934.242188 1782.40625 935.039062 1782.5625 C 935.835938 1782.714844 936.640625 1782.792969 937.453125 1782.792969 C 938.265625 1782.792969 939.070312 1782.714844 939.871094 1782.5625 C 940.667969 1782.40625 941.441406 1782.179688 942.195312 1781.875 C 942.949219 1781.570312 943.667969 1781.199219 944.351562 1780.757812 C 945.035156 1780.316406 945.667969 1779.816406 946.253906 1779.253906 L 1779.785156 980.433594 C 1780.269531 979.976562 1780.71875 979.484375 1781.125 978.957031 C 1781.53125 978.429688 1781.894531 977.875 1782.214844 977.289062 C 1782.535156 976.703125 1782.804688 976.097656 1783.027344 975.46875 C 1783.25 974.839844 1783.421875 974.199219 1783.539062 973.542969 C 1783.660156 972.886719 1783.730469 972.226562 1783.742188 971.5625 C 1783.757812 970.894531 1783.722656 970.230469 1783.632812 969.570312 C 1783.542969 968.910156 1783.398438 968.261719 1783.207031 967.625 C 1783.011719 966.988281 1782.769531 966.367188 1782.476562 965.769531 L 1473.851562 317.375 C 1473.351562 316.285156 1472.710938 315.289062 1471.925781 314.386719 C 1471.140625 313.480469 1470.246094 312.707031 1469.234375 312.0625 C 1468.226562 311.414062 1467.148438 310.925781 1466 310.589844 C 1464.851562 310.253906 1463.675781 310.089844 1462.480469 310.09375 L 412.527344 310.09375 C 411.324219 310.078125 410.144531 310.234375 408.988281 310.5625 C 407.828125 310.886719 406.742188 311.371094 405.722656 312.011719 C 404.707031 312.65625 403.800781 313.429688 403.007812 314.332031 C 402.210938 315.234375 401.5625 316.234375 401.058594 317.324219 Z M 401.058594 317.324219 " fill-opacity="1" fill-rule="evenodd"/></g><path fill="#ffffff" d="M 1044.542969 1032.304688 C 1038.558594 1032.753906 1007.640625 1034.597656 938.675781 1034.597656 C 883.820312 1034.597656 844.875 1032.953125 831.210938 1032.304688 C 619.226562 1022.976562 461 986.070312 461 941.878906 C 461 897.6875 619.226562 860.828125 831.210938 851.351562 L 831.210938 995.546875 C 845.074219 996.542969 884.769531 998.886719 939.625 998.886719 C 1005.449219 998.886719 1038.410156 996.144531 1044.34375 995.59375 L 1044.34375 851.453125 C 1255.882812 860.878906 1413.761719 897.789062 1413.761719 941.878906 C 1413.761719 985.96875 1255.929688 1022.878906 1044.34375 1032.253906 Z M 1044.542969 836.539062 L 1044.542969 707.507812 L 1339.757812 707.507812 L 1339.757812 510.746094 L 536 510.746094 L 536 707.507812 L 831.164062 707.507812 L 831.164062 836.488281 C 591.25 847.511719 410.832031 895.042969 410.832031 952.003906 C 410.832031 1008.960938 591.25 1056.445312 831.164062 1067.515625 L 831.164062 1480.992188 L 1044.492188 1480.992188 L 1044.492188 1067.367188 C 1283.855469 1056.34375 1463.976562 1008.863281 1463.976562 951.953125 C 1463.976562 895.042969 1284.007812 847.5625 1044.492188 836.488281 Z M 1044.542969 836.539062 Z M 1044.542969 836.539062 " fill-opacity="1" fill-rule="evenodd"/></svg>