<svg xmlns="http://www.w3.org/2000/svg" xmlns:xlink="http://www.w3.org/1999/xlink" width="2500" zoomAndPan="magnify" viewBox="0 0 1874.88 1874.999927" height="2500" preserveAspectRatio="xMidYMid meet" version="1.0"><defs><clipPath id="id1"><path d="M 0 0.0585938 L 1874.761719 0.0585938 L 1874.761719 1874.9375 L 0 1874.9375 Z M 0 0.0585938 " clip-rule="nonzero"/></clipPath><clipPath id="id2"><path d="M 0 0.0585938 L 1874.761719 0.0585938 L 1874.761719 1234 L 0 1234 Z M 0 0.0585938 " clip-rule="nonzero"/></clipPath><clipPath id="id3"><path d="M 136 928 L 1739 928 L 1739 1874.9375 L 136 1874.9375 Z M 136 928 " clip-rule="nonzero"/></clipPath></defs><g clip-path="url(#id1)"><path fill="#ffffff" d="M 0 0.0585938 L 1874.878906 0.0585938 L 1874.878906 1882.4375 L 0 1882.4375 Z M 0 0.0585938 " fill-opacity="1" fill-rule="nonzero"/><path fill="#ffffff" d="M 0 0.0585938 L 1874.878906 0.0585938 L 1874.878906 1874.941406 L 0 1874.941406 Z M 0 0.0585938 " fill-opacity="1" fill-rule="nonzero"/><path fill="#ffffff" d="M 0 0.0585938 L 1874.878906 0.0585938 L 1874.878906 1874.941406 L 0 1874.941406 Z M 0 0.0585938 " fill-opacity="1" fill-rule="nonzero"/><path fill="#ffffff" d="M 0 0.0585938 L 1874.878906 0.0585938 L 1874.878906 1874.941406 L 0 1874.941406 Z M 0 0.0585938 " fill-opacity="1" fill-rule="nonzero"/><path fill="#ffffff" d="M 1874.753906 937.40625 C 1874.753906 1455.074219 1455.136719 1874.75 937.4375 1874.75 C 419.738281 1874.75 0.121094 1455.074219 0.121094 937.40625 C 0.121094 419.742188 419.746094 0.0585938 937.4375 0.0585938 C 1455.128906 0.0585938 1874.753906 419.703125 1874.753906 937.40625 Z M 1874.753906 937.40625 " fill-opacity="1" fill-rule="nonzero"/></g><g clip-path="url(#id2)"><path fill="#f26822" d="M 937.4375 0.0585938 C 419.921875 0.0585938 -0.4375 420.335938 0.21875 937.378906 C 0.347656 1040.820312 16.84375 1140.328125 47.804688 1233.40625 L 328.242188 1233.40625 L 328.242188 444.886719 L 937.4375 1054.078125 L 1546.605469 444.886719 L 1546.605469 1233.421875 L 1827.101562 1233.421875 C 1858.105469 1140.347656 1874.515625 1040.84375 1874.699219 937.390625 C 1875.582031 419.8125 1455.007812 0.183594 937.4375 0.183594 Z M 937.4375 0.0585938 " fill-opacity="1" fill-rule="nonzero"/></g><g clip-path="url(#id3)"><path fill="#4d4d4d" d="M 797.339844 1194.125 L 531.480469 928.253906 L 531.480469 1424.433594 L 328.222656 1424.433594 L 136.421875 1424.46875 C 300.941406 1694.382812 598.265625 1874.941406 937.4375 1874.941406 C 1276.609375 1874.941406 1573.949219 1694.34375 1738.5 1424.429688 L 1343.335938 1424.429688 L 1343.335938 928.253906 L 1077.460938 1194.125 L 937.40625 1334.179688 L 797.347656 1194.125 Z M 797.339844 1194.125 " fill-opacity="1" fill-rule="nonzero"/></g></svg>