<svg xmlns="http://www.w3.org/2000/svg" xmlns:xlink="http://www.w3.org/1999/xlink" width="2500" zoomAndPan="magnify" viewBox="0 0 1874.88 937.499967" height="1250" preserveAspectRatio="xMidYMid meet" version="1.0"><defs><g/></defs><g fill="#ffffff" fill-opacity="1"><g transform="translate(-19.413555, 929.78669)"><g><path d="M 328.875 3.625 C 271.28125 3.625 221.1875 -6.898438 178.59375 -27.953125 C 136 -49.003906 103.328125 -78.890625 80.578125 -117.609375 C 57.835938 -156.328125 46.46875 -201.335938 46.46875 -252.640625 C 46.46875 -323.785156 59.894531 -386.945312 86.75 -442.125 C 113.613281 -497.300781 150.035156 -540.015625 196.015625 -570.265625 C 241.992188 -600.515625 293.054688 -615.640625 349.203125 -615.640625 C 401.472656 -615.640625 441.160156 -602.207031 468.265625 -575.34375 C 495.367188 -548.476562 508.921875 -513.023438 508.921875 -468.984375 C 508.921875 -439.460938 503.71875 -415.75 493.3125 -397.84375 C 482.90625 -379.9375 468.019531 -370.984375 448.65625 -370.984375 C 435.101562 -370.984375 424.453125 -374.128906 416.703125 -380.421875 C 408.960938 -386.710938 405.09375 -395.90625 405.09375 -408 C 405.09375 -412.351562 406.0625 -420.335938 408 -431.953125 C 410.90625 -446.472656 412.359375 -458.09375 412.359375 -466.8125 C 412.359375 -510.851562 388.882812 -532.875 341.9375 -532.875 C 310 -532.875 279.507812 -522.46875 250.46875 -501.65625 C 221.425781 -480.84375 197.953125 -450.226562 180.046875 -409.8125 C 162.140625 -369.40625 153.1875 -321.367188 153.1875 -265.703125 C 153.1875 -207.628906 169.398438 -162.738281 201.828125 -131.03125 C 234.253906 -99.332031 282.164062 -83.484375 345.5625 -83.484375 C 377.019531 -83.484375 408.84375 -87.476562 441.03125 -95.46875 C 473.21875 -103.457031 508.914062 -115.675781 548.125 -132.125 C 555.382812 -135.03125 561.429688 -136.484375 566.265625 -136.484375 C 574.015625 -136.484375 579.820312 -133.578125 583.6875 -127.765625 C 587.5625 -121.960938 589.5 -114.460938 589.5 -105.265625 C 589.5 -75.742188 573.523438 -53.960938 541.578125 -39.921875 C 507.222656 -24.921875 471.53125 -13.910156 434.5 -6.890625 C 397.476562 0.117188 362.269531 3.625 328.875 3.625 Z M 328.875 3.625 "/></g></g></g><g fill="#ffffff" fill-opacity="1"><g transform="translate(478.613255, 929.78669)"><g><path d="M 405.09375 -222.875 C 411.382812 -222.875 416.222656 -219.726562 419.609375 -213.4375 C 423.003906 -207.144531 424.703125 -199.160156 424.703125 -189.484375 C 424.703125 -166.253906 417.679688 -152.457031 403.640625 -148.09375 C 374.609375 -137.9375 342.664062 -132.128906 307.8125 -130.671875 C 298.625 -90.015625 280.476562 -57.46875 253.375 -33.03125 C 226.269531 -8.59375 195.535156 3.625 161.171875 3.625 C 132.128906 3.625 107.320312 -3.390625 86.75 -17.421875 C 66.1875 -31.460938 50.578125 -50.097656 39.921875 -73.328125 C 29.273438 -96.554688 23.953125 -121.722656 23.953125 -148.828125 C 23.953125 -185.609375 30.96875 -218.394531 45 -247.1875 C 59.039062 -275.988281 78.398438 -298.492188 103.078125 -314.703125 C 127.765625 -330.921875 155.113281 -339.03125 185.125 -339.03125 C 221.90625 -339.03125 251.546875 -326.328125 274.046875 -300.921875 C 296.554688 -275.515625 309.75 -244.175781 313.625 -206.90625 C 336.375 -208.351562 363.476562 -213.191406 394.9375 -221.421875 C 398.8125 -222.390625 402.195312 -222.875 405.09375 -222.875 Z M 166.96875 -73.328125 C 182.457031 -73.328125 195.890625 -79.617188 207.265625 -92.203125 C 218.640625 -104.785156 226.265625 -122.9375 230.140625 -146.65625 C 215.128906 -156.8125 203.628906 -170.117188 195.640625 -186.578125 C 187.660156 -203.035156 183.671875 -220.457031 183.671875 -238.84375 C 183.671875 -246.59375 184.398438 -254.335938 185.859375 -262.078125 L 182.21875 -262.078125 C 162.863281 -262.078125 146.769531 -252.757812 133.9375 -234.125 C 121.113281 -215.488281 114.703125 -189.234375 114.703125 -155.359375 C 114.703125 -128.742188 119.90625 -108.414062 130.3125 -94.375 C 140.71875 -80.34375 152.9375 -73.328125 166.96875 -73.328125 Z M 166.96875 -73.328125 "/></g></g></g><g fill="#ffffff" fill-opacity="1"><g transform="translate(806.033199, 929.78669)"><g><path d="M 394.203125 -220.703125 C 395.660156 -221.179688 398.082031 -221.421875 401.46875 -221.421875 C 408.726562 -221.421875 414.289062 -219 418.15625 -214.15625 C 422.03125 -209.320312 423.96875 -202.789062 423.96875 -194.5625 C 423.96875 -179.5625 421.0625 -167.828125 415.25 -159.359375 C 409.445312 -150.890625 400.738281 -144.71875 389.125 -140.84375 C 366.863281 -133.582031 343.148438 -129.953125 317.984375 -129.953125 C 296.679688 -129.953125 276.59375 -132.851562 257.71875 -138.65625 C 243.6875 -115.914062 228.203125 -92.445312 211.265625 -68.25 C 191.898438 -40.65625 175.195312 -21.773438 161.15625 -11.609375 C 147.125 -1.453125 131.15625 3.625 113.25 3.625 C 93.40625 3.625 77.796875 -4.113281 66.421875 -19.59375 C 55.046875 -35.082031 47.910156 -59.523438 45.015625 -92.921875 C 39.203125 -160.679688 36.296875 -219.972656 36.296875 -270.796875 L 36.296875 -296.203125 C 36.785156 -312.171875 41.140625 -323.300781 49.359375 -329.59375 C 57.585938 -335.882812 69.929688 -339.03125 86.390625 -339.03125 C 98.972656 -339.03125 108.289062 -336.25 114.34375 -330.6875 C 120.394531 -325.125 123.421875 -315.804688 123.421875 -302.734375 C 123.421875 -247.078125 126.804688 -174.722656 133.578125 -85.671875 C 162.617188 -128.742188 184.398438 -163.101562 198.921875 -188.75 C 191.660156 -202.789062 188.03125 -219.488281 188.03125 -238.84375 C 188.03125 -255.300781 191.660156 -271.273438 198.921875 -286.765625 C 206.179688 -302.253906 216.101562 -314.835938 228.6875 -324.515625 C 241.269531 -334.191406 255.546875 -339.03125 271.515625 -339.03125 C 285.554688 -339.03125 296.929688 -334.066406 305.640625 -324.140625 C 314.347656 -314.222656 318.703125 -299.828125 318.703125 -280.953125 C 318.703125 -259.171875 312.894531 -234.242188 301.28125 -206.171875 C 319.675781 -207.140625 344.117188 -210.769531 374.609375 -217.0625 Z M 394.203125 -220.703125 "/></g></g></g><g fill="#ffffff" fill-opacity="1"><g transform="translate(1132.001106, 929.78669)"><g><path d="M 358.640625 -161.890625 C 364.929688 -161.890625 369.890625 -158.984375 373.515625 -153.171875 C 377.148438 -147.367188 378.96875 -139.382812 378.96875 -129.21875 C 378.96875 -109.863281 374.367188 -94.863281 365.171875 -84.21875 C 347.265625 -62.4375 321.972656 -42.347656 289.296875 -23.953125 C 256.628906 -5.566406 221.664062 3.625 184.40625 3.625 C 133.582031 3.625 94.132812 -10.164062 66.0625 -37.75 C 37.988281 -65.332031 23.953125 -103.082031 23.953125 -151 C 23.953125 -184.394531 30.96875 -215.488281 45 -244.28125 C 59.039062 -273.082031 78.523438 -295.953125 103.453125 -312.890625 C 128.378906 -329.835938 156.570312 -338.3125 188.03125 -338.3125 C 216.101562 -338.3125 238.609375 -329.960938 255.546875 -313.265625 C 272.484375 -296.566406 280.953125 -273.9375 280.953125 -245.375 C 280.953125 -211.988281 268.972656 -183.316406 245.015625 -159.359375 C 221.054688 -135.398438 180.523438 -116.398438 123.421875 -102.359375 C 135.515625 -80.097656 158.503906 -68.96875 192.390625 -68.96875 C 214.171875 -68.96875 238.972656 -76.585938 266.796875 -91.828125 C 294.628906 -107.078125 318.707031 -127.046875 339.03125 -151.734375 C 344.84375 -158.503906 351.378906 -161.890625 358.640625 -161.890625 Z M 175.6875 -267.15625 C 157.78125 -267.15625 142.65625 -256.75 130.3125 -235.9375 C 117.96875 -215.132812 111.796875 -189.96875 111.796875 -160.4375 L 111.796875 -158.984375 C 140.359375 -165.765625 162.863281 -175.929688 179.3125 -189.484375 C 195.769531 -203.035156 204 -218.765625 204 -236.671875 C 204 -245.867188 201.457031 -253.25 196.375 -258.8125 C 191.289062 -264.375 184.394531 -267.15625 175.6875 -267.15625 Z M 175.6875 -267.15625 "/></g></g></g><g fill="#ffffff" fill-opacity="1"><g transform="translate(1417.313918, 929.78669)"><g><path d="M 86.390625 3.625 C 68.003906 3.625 55.054688 -6.050781 47.546875 -25.40625 C 40.046875 -44.769531 36.296875 -75.742188 36.296875 -118.328125 C 36.296875 -181.253906 45.25 -241.03125 63.15625 -297.65625 C 67.507812 -311.6875 74.644531 -321.96875 84.5625 -328.5 C 94.488281 -335.039062 108.410156 -338.3125 126.328125 -338.3125 C 136.003906 -338.3125 142.773438 -337.097656 146.640625 -334.671875 C 150.515625 -332.253906 152.453125 -327.660156 152.453125 -320.890625 C 152.453125 -313.140625 148.820312 -295.710938 141.5625 -268.609375 C 136.726562 -249.253906 132.859375 -232.316406 129.953125 -217.796875 C 127.046875 -203.273438 124.625 -185.367188 122.6875 -164.078125 C 138.664062 -205.691406 156.570312 -239.566406 176.40625 -265.703125 C 196.25 -291.835938 215.726562 -310.472656 234.84375 -321.609375 C 253.96875 -332.742188 271.515625 -338.3125 287.484375 -338.3125 C 318.941406 -338.3125 334.671875 -322.582031 334.671875 -291.125 C 334.671875 -284.832031 332.492188 -269.582031 328.140625 -245.375 C 324.273438 -226.019531 322.34375 -213.921875 322.34375 -209.078125 C 322.34375 -192.140625 328.390625 -183.671875 340.484375 -183.671875 C 354.035156 -183.671875 371.457031 -194.320312 392.75 -215.625 C 399.050781 -221.914062 405.585938 -225.0625 412.359375 -225.0625 C 418.648438 -225.0625 423.609375 -222.273438 427.234375 -216.703125 C 430.867188 -211.140625 432.6875 -203.757812 432.6875 -194.5625 C 432.6875 -176.65625 427.847656 -162.617188 418.171875 -152.453125 C 404.617188 -138.421875 388.765625 -126.441406 370.609375 -116.515625 C 352.460938 -106.597656 333.226562 -101.640625 312.90625 -101.640625 C 287.25 -101.640625 267.765625 -108.171875 254.453125 -121.234375 C 241.148438 -134.304688 234.5 -151.972656 234.5 -174.234375 C 234.5 -181.492188 235.222656 -188.753906 236.671875 -196.015625 C 237.640625 -205.691406 238.125 -212.226562 238.125 -215.625 C 238.125 -223.363281 235.460938 -227.234375 230.140625 -227.234375 C 222.878906 -227.234375 213.316406 -219.125 201.453125 -202.90625 C 189.597656 -186.695312 177.863281 -165.28125 166.25 -138.65625 C 154.632812 -112.039062 145.195312 -83.972656 137.9375 -54.453125 C 132.613281 -31.703125 126.441406 -16.332031 119.421875 -8.34375 C 112.398438 -0.363281 101.390625 3.625 86.390625 3.625 Z M 86.390625 3.625 "/></g></g></g></svg>