<svg xmlns="http://www.w3.org/2000/svg" width="175" zoomAndPan="magnify" viewBox="0 0 131.25 44.999999" height="60" preserveAspectRatio="xMidYMid meet" version="1.0"><defs><g/><clipPath id="id1"><path d="M 1 0.128906 L 40 0.128906 L 40 44 L 1 44 Z M 1 0.128906 " /></clipPath></defs><g clip-path="url(#id1)"><g fill="#ffffff" fill-opacity="1"><g transform="translate(-1.327415, 43.239846)"><g><path d="M 23.015625 0.25 C 18.984375 0.25 15.476562 -0.484375 12.5 -1.953125 C 9.519531 -3.429688 7.234375 -5.523438 5.640625 -8.234375 C 4.046875 -10.941406 3.25 -14.09375 3.25 -17.6875 C 3.25 -22.664062 4.1875 -27.082031 6.0625 -30.9375 C 7.945312 -34.800781 10.5 -37.789062 13.71875 -39.90625 C 16.9375 -42.03125 20.507812 -43.09375 24.4375 -43.09375 C 28.09375 -43.09375 30.867188 -42.148438 32.765625 -40.265625 C 34.671875 -38.390625 35.625 -35.910156 35.625 -32.828125 C 35.625 -30.753906 35.257812 -29.09375 34.53125 -27.84375 C 33.800781 -26.59375 32.757812 -25.96875 31.40625 -25.96875 C 30.457031 -25.96875 29.710938 -26.1875 29.171875 -26.625 C 28.628906 -27.0625 28.359375 -27.707031 28.359375 -28.5625 C 28.359375 -28.863281 28.425781 -29.421875 28.5625 -30.234375 C 28.757812 -31.242188 28.859375 -32.054688 28.859375 -32.671875 C 28.859375 -35.753906 27.21875 -37.296875 23.9375 -37.296875 C 21.695312 -37.296875 19.5625 -36.566406 17.53125 -35.109375 C 15.5 -33.648438 13.851562 -31.503906 12.59375 -28.671875 C 11.34375 -25.847656 10.71875 -22.488281 10.71875 -18.59375 C 10.71875 -14.53125 11.851562 -11.390625 14.125 -9.171875 C 16.394531 -6.953125 19.75 -5.84375 24.1875 -5.84375 C 26.382812 -5.84375 28.609375 -6.117188 30.859375 -6.671875 C 33.117188 -7.234375 35.617188 -8.09375 38.359375 -9.25 C 38.867188 -9.445312 39.296875 -9.546875 39.640625 -9.546875 C 40.179688 -9.546875 40.585938 -9.34375 40.859375 -8.9375 C 41.128906 -8.53125 41.265625 -8.007812 41.265625 -7.375 C 41.265625 -5.300781 40.144531 -3.773438 37.90625 -2.796875 C 35.5 -1.742188 33 -0.972656 30.40625 -0.484375 C 27.820312 0.00390625 25.359375 0.25 23.015625 0.25 Z M 23.015625 0.25 "/></g></g></g></g><g fill="#ffffff" fill-opacity="1"><g transform="translate(33.53247, 43.239846)"><g><path d="M 28.359375 -15.59375 C 28.796875 -15.59375 29.128906 -15.375 29.359375 -14.9375 C 29.597656 -14.5 29.71875 -13.941406 29.71875 -13.265625 C 29.71875 -11.640625 29.226562 -10.671875 28.25 -10.359375 C 26.21875 -9.648438 23.984375 -9.242188 21.546875 -9.140625 C 20.898438 -6.296875 19.628906 -4.019531 17.734375 -2.3125 C 15.835938 -0.601562 13.6875 0.25 11.28125 0.25 C 9.25 0.25 7.507812 -0.238281 6.0625 -1.21875 C 4.625 -2.195312 3.53125 -3.5 2.78125 -5.125 C 2.039062 -6.757812 1.671875 -8.523438 1.671875 -10.421875 C 1.671875 -12.992188 2.160156 -15.285156 3.140625 -17.296875 C 4.128906 -19.316406 5.488281 -20.894531 7.21875 -22.03125 C 8.945312 -23.164062 10.859375 -23.734375 12.953125 -23.734375 C 15.523438 -23.734375 17.597656 -22.84375 19.171875 -21.0625 C 20.753906 -19.28125 21.679688 -17.085938 21.953125 -14.484375 C 23.546875 -14.585938 25.441406 -14.925781 27.640625 -15.5 C 27.910156 -15.5625 28.148438 -15.59375 28.359375 -15.59375 Z M 11.6875 -5.125 C 12.769531 -5.125 13.707031 -5.566406 14.5 -6.453125 C 15.300781 -7.335938 15.835938 -8.609375 16.109375 -10.265625 C 15.054688 -10.972656 14.25 -11.898438 13.6875 -13.046875 C 13.132812 -14.203125 12.859375 -15.425781 12.859375 -16.71875 C 12.859375 -17.257812 12.910156 -17.800781 13.015625 -18.34375 L 12.75 -18.34375 C 11.394531 -18.34375 10.269531 -17.691406 9.375 -16.390625 C 8.476562 -15.085938 8.03125 -13.25 8.03125 -10.875 C 8.03125 -9.007812 8.394531 -7.582031 9.125 -6.59375 C 9.851562 -5.613281 10.707031 -5.125 11.6875 -5.125 Z M 11.6875 -5.125 "/></g></g></g><g fill="#ffffff" fill-opacity="1"><g transform="translate(56.450556, 43.239846)"><g><path d="M 27.59375 -15.453125 C 27.695312 -15.484375 27.863281 -15.5 28.09375 -15.5 C 28.601562 -15.5 28.992188 -15.328125 29.265625 -14.984375 C 29.535156 -14.648438 29.671875 -14.195312 29.671875 -13.625 C 29.671875 -12.570312 29.46875 -11.75 29.0625 -11.15625 C 28.65625 -10.5625 28.046875 -10.128906 27.234375 -9.859375 C 25.671875 -9.347656 24.007812 -9.09375 22.25 -9.09375 C 20.757812 -9.09375 19.351562 -9.296875 18.03125 -9.703125 C 17.050781 -8.109375 15.96875 -6.46875 14.78125 -4.78125 C 13.425781 -2.84375 12.257812 -1.519531 11.28125 -0.8125 C 10.300781 -0.101562 9.179688 0.25 7.921875 0.25 C 6.535156 0.25 5.441406 -0.289062 4.640625 -1.375 C 3.847656 -2.457031 3.351562 -4.164062 3.15625 -6.5 C 2.75 -11.25 2.546875 -15.398438 2.546875 -18.953125 L 2.546875 -20.734375 C 2.578125 -21.847656 2.878906 -22.625 3.453125 -23.0625 C 4.023438 -23.507812 4.890625 -23.734375 6.046875 -23.734375 C 6.929688 -23.734375 7.582031 -23.535156 8 -23.140625 C 8.425781 -22.753906 8.640625 -22.101562 8.640625 -21.1875 C 8.640625 -17.289062 8.875 -12.226562 9.34375 -6 C 11.375 -9.007812 12.898438 -11.414062 13.921875 -13.21875 C 13.410156 -14.195312 13.15625 -15.363281 13.15625 -16.71875 C 13.15625 -17.863281 13.410156 -18.976562 13.921875 -20.0625 C 14.429688 -21.15625 15.125 -22.039062 16 -22.71875 C 16.882812 -23.394531 17.882812 -23.734375 19 -23.734375 C 19.988281 -23.734375 20.785156 -23.382812 21.390625 -22.6875 C 22.003906 -21.988281 22.3125 -20.984375 22.3125 -19.671875 C 22.3125 -18.140625 21.90625 -16.394531 21.09375 -14.4375 C 22.375 -14.5 24.082031 -14.75 26.21875 -15.1875 Z M 27.59375 -15.453125 "/></g></g></g><g fill="#ffffff" fill-opacity="1"><g transform="translate(79.267015, 43.239846)"><g><path d="M 25.09375 -11.328125 C 25.539062 -11.328125 25.890625 -11.125 26.140625 -10.71875 C 26.398438 -10.3125 26.53125 -9.753906 26.53125 -9.046875 C 26.53125 -7.691406 26.207031 -6.640625 25.5625 -5.890625 C 24.300781 -4.367188 22.523438 -2.960938 20.234375 -1.671875 C 17.953125 -0.390625 15.507812 0.25 12.90625 0.25 C 9.351562 0.25 6.59375 -0.710938 4.625 -2.640625 C 2.65625 -4.566406 1.671875 -7.207031 1.671875 -10.5625 C 1.671875 -12.90625 2.160156 -15.082031 3.140625 -17.09375 C 4.128906 -19.113281 5.492188 -20.710938 7.234375 -21.890625 C 8.984375 -23.078125 10.957031 -23.671875 13.15625 -23.671875 C 15.125 -23.671875 16.703125 -23.085938 17.890625 -21.921875 C 19.078125 -20.753906 19.671875 -19.171875 19.671875 -17.171875 C 19.671875 -14.835938 18.832031 -12.832031 17.15625 -11.15625 C 15.476562 -9.476562 12.640625 -8.148438 8.640625 -7.171875 C 9.484375 -5.609375 11.09375 -4.828125 13.46875 -4.828125 C 14.988281 -4.828125 16.722656 -5.359375 18.671875 -6.421875 C 20.617188 -7.492188 22.304688 -8.894531 23.734375 -10.625 C 24.140625 -11.09375 24.59375 -11.328125 25.09375 -11.328125 Z M 12.296875 -18.703125 C 11.046875 -18.703125 9.988281 -17.972656 9.125 -16.515625 C 8.257812 -15.054688 7.828125 -13.296875 7.828125 -11.234375 L 7.828125 -11.125 C 9.828125 -11.601562 11.398438 -12.316406 12.546875 -13.265625 C 13.703125 -14.210938 14.28125 -15.3125 14.28125 -16.5625 C 14.28125 -17.207031 14.101562 -17.722656 13.75 -18.109375 C 13.394531 -18.503906 12.910156 -18.703125 12.296875 -18.703125 Z M 12.296875 -18.703125 "/></g></g></g><g fill="#ffffff" fill-opacity="1"><g transform="translate(99.237769, 43.239846)"><g><path d="M 6.046875 0.25 C 4.753906 0.25 3.847656 -0.425781 3.328125 -1.78125 C 2.804688 -3.132812 2.546875 -5.300781 2.546875 -8.28125 C 2.546875 -12.6875 3.171875 -16.867188 4.421875 -20.828125 C 4.722656 -21.816406 5.222656 -22.535156 5.921875 -22.984375 C 6.617188 -23.441406 7.59375 -23.671875 8.84375 -23.671875 C 9.519531 -23.671875 9.992188 -23.585938 10.265625 -23.421875 C 10.535156 -23.253906 10.671875 -22.929688 10.671875 -22.453125 C 10.671875 -21.910156 10.414062 -20.691406 9.90625 -18.796875 C 9.570312 -17.441406 9.300781 -16.253906 9.09375 -15.234375 C 8.894531 -14.222656 8.726562 -12.972656 8.59375 -11.484375 C 9.707031 -14.398438 10.957031 -16.769531 12.34375 -18.59375 C 13.738281 -20.425781 15.101562 -21.726562 16.4375 -22.5 C 17.769531 -23.28125 19 -23.671875 20.125 -23.671875 C 22.320312 -23.671875 23.421875 -22.570312 23.421875 -20.375 C 23.421875 -19.9375 23.269531 -18.867188 22.96875 -17.171875 C 22.695312 -15.816406 22.5625 -14.972656 22.5625 -14.640625 C 22.5625 -13.453125 22.984375 -12.859375 23.828125 -12.859375 C 24.773438 -12.859375 25.992188 -13.601562 27.484375 -15.09375 C 27.929688 -15.53125 28.390625 -15.75 28.859375 -15.75 C 29.296875 -15.75 29.640625 -15.550781 29.890625 -15.15625 C 30.148438 -14.769531 30.28125 -14.257812 30.28125 -13.625 C 30.28125 -12.363281 29.941406 -11.378906 29.265625 -10.671875 C 28.316406 -9.691406 27.207031 -8.851562 25.9375 -8.15625 C 24.664062 -7.457031 23.320312 -7.109375 21.90625 -7.109375 C 20.101562 -7.109375 18.734375 -7.566406 17.796875 -8.484375 C 16.867188 -9.398438 16.40625 -10.632812 16.40625 -12.1875 C 16.40625 -12.695312 16.457031 -13.207031 16.5625 -13.71875 C 16.632812 -14.394531 16.671875 -14.851562 16.671875 -15.09375 C 16.671875 -15.632812 16.484375 -15.90625 16.109375 -15.90625 C 15.597656 -15.90625 14.925781 -15.335938 14.09375 -14.203125 C 13.269531 -13.066406 12.453125 -11.566406 11.640625 -9.703125 C 10.828125 -7.835938 10.164062 -5.875 9.65625 -3.8125 C 9.28125 -2.21875 8.847656 -1.140625 8.359375 -0.578125 C 7.867188 -0.0234375 7.097656 0.25 6.046875 0.25 Z M 6.046875 0.25 "/></g></g></g></svg>